<svg width="20" height="20" viewBox="0 0 30 31" fill="none" xmlns="http://www.w3.org/2000/svg">
<path d="M26.6667 0.413086C27.5507 0.413086 28.3986 0.764275 29.0237 1.3894C29.6488 2.01452 30 2.86236 30 3.74642V27.0798C30 27.9638 29.6488 28.8117 29.0237 29.4368C28.3986 30.0619 27.5507 30.4131 26.6667 30.4131H3.33333C2.44928 30.4131 1.60143 30.0619 0.976311 29.4368C0.351189 28.8117 0 27.9638 0 27.0798V3.74642C0 2.86236 0.351189 2.01452 0.976311 1.3894C1.60143 0.764275 2.44928 0.413086 3.33333 0.413086H26.6667ZM25.8333 26.2464V17.4131C25.8333 15.9721 25.2609 14.5901 24.2419 13.5711C23.223 12.5522 21.841 11.9798 20.4 11.9798C18.9833 11.9798 17.3333 12.8464 16.5333 14.1464V12.2964H11.8833V26.2464H16.5333V18.0298C16.5333 16.7464 17.5667 15.6964 18.85 15.6964C19.4688 15.6964 20.0623 15.9423 20.4999 16.3798C20.9375 16.8174 21.1833 17.4109 21.1833 18.0298V26.2464H25.8333ZM6.46667 9.67975C7.20927 9.67975 7.92146 9.38475 8.44657 8.85965C8.97167 8.33455 9.26667 7.62236 9.26667 6.87975C9.26667 5.32975 8.01667 4.06309 6.46667 4.06309C5.71964 4.06309 5.00321 4.35984 4.47498 4.88807C3.94675 5.4163 3.65 6.13273 3.65 6.87975C3.65 8.42975 4.91667 9.67975 6.46667 9.67975ZM8.78333 26.2464V12.2964H4.16667V26.2464H8.78333Z" fill="white"/>
</svg>
