<svg
  width="95"
  height="64"
  viewBox="0 0 95 64"
  fill="none"
  xmlns="http://www.w3.org/2000/svg"
>
  <path
    d="M31.8718 29.7836C32.2227 26.6634 32.5736 23.5433 32.7386 21.8849C32.9035 20.2265 32.8825 20.0297 32.872 19.9314C32.8615 19.833 32.8615 19.833 31.4562 19.5614C30.0509 19.2898 27.2403 18.7466 24.3606 18.3414C23.3878 18.2044 22.4071 18.0834 21.4119 17.9967C21.0715 18.1086 20.7501 18.279 20.4325 18.5013C20.2568 18.6244 20.0766 18.6962 20.2472 18.982C20.3993 19.2373 20.5374 19.1231 20.6979 19.0279C21.0688 18.8073 21.4447 18.5958 21.8102 18.3658C21.9844 18.2562 22.1174 18.2832 22.2317 18.442C22.3741 18.6403 22.2385 18.7691 22.1014 18.8603C21.7931 19.0657 21.4592 19.2307 21.1622 19.4518C20.9896 19.5803 20.5636 19.5801 20.8164 20.0184C21.0421 20.4093 21.2304 20.0712 21.4133 19.9772C21.7043 19.8278 21.9791 19.6432 22.2598 19.4719C22.4382 19.363 22.6368 19.2194 22.7899 19.4702C22.9695 19.7642 22.7239 19.8876 22.5334 20.0072C22.2024 20.215 21.8676 20.4161 21.532 20.6153C21.3533 20.7213 21.2429 20.8275 21.3789 21.067C21.5218 21.3183 21.6614 21.2211 21.8289 21.1182C22.1441 20.9244 22.4658 20.7422 22.7836 20.5531C22.9792 20.4366 23.2059 20.2659 23.3657 20.5447C23.5382 20.8458 23.2258 20.9175 23.0711 21.0667C22.6534 21.4699 21.7423 21.3966 21.9204 22.3796C21.4571 22.6816 21.7769 22.9793 21.9285 23.2731C22.0739 23.5549 22.2315 23.8293 22.3783 24.11C22.4741 24.2926 22.5175 24.4918 22.3116 24.6138C22.0983 24.74 21.9756 24.5731 21.879 24.3986C21.6644 24.0108 21.4515 23.6219 21.2422 23.2309C21.153 23.064 21.0655 22.9568 20.8614 23.0799C20.6602 23.2014 20.6207 23.3184 20.7492 23.5349C20.9643 23.897 21.1535 24.2762 21.3507 24.6499C21.451 24.84 21.5745 25.0585 21.3176 25.2C21.0724 25.335 20.9542 25.116 20.8503 24.9291C20.6758 24.6158 20.5161 24.2929 20.3324 23.9859C20.2299 23.8149 20.2078 23.489 19.8647 23.6905C19.4944 23.908 19.7562 24.1117 19.8572 24.3129C20.0186 24.634 20.1929 24.9479 20.3667 25.2616C20.475 25.4572 20.5828 25.6614 20.3239 25.8038C20.1071 25.923 19.9871 25.7434 19.8913 25.5744C19.6835 25.207 19.4824 24.8356 19.2811 24.4645C19.1908 24.2978 19.142 24.1172 18.8815 24.2778C18.6241 24.4365 18.6721 24.5802 18.7934 24.7897C19.0049 25.1542 19.2016 25.5283 19.4025 25.8997C19.499 26.078 19.5686 26.2731 19.3552 26.4013C19.1441 26.528 19.0143 26.364 18.9173 26.1923C18.6995 25.8066 18.4854 25.4183 18.2793 25.0254C18.1691 24.8154 18.0546 24.7623 17.8459 24.905C17.6569 25.0339 17.673 25.1463 17.7746 25.3226C17.9955 25.7063 18.2024 26.0991 18.4092 26.4916C18.5009 26.6656 18.5813 26.861 18.3616 26.9916C18.1553 27.1141 18.0164 26.9815 17.9171 26.7983C17.7058 26.4084 17.4988 26.0162 17.2898 25.6251C17.2043 25.4654 17.1171 25.3402 16.9106 25.4657C16.7164 25.5836 16.6521 25.6987 16.786 25.9221C16.9918 26.2649 17.1745 26.6235 17.3611 26.979C17.4666 27.1797 17.6448 27.4141 17.3786 27.5941C17.0995 27.7829 16.9885 27.4976 16.8762 27.3044C16.6963 26.9945 16.5357 26.6723 16.3587 26.3605C16.2537 26.1756 16.2052 25.8797 15.8808 26.0921C15.5582 26.3034 15.7991 26.4945 15.8889 26.6791C16.0366 26.9832 16.2068 27.2751 16.3673 27.5722C16.4771 27.7754 16.6495 28.0047 16.3881 28.1879C16.1027 28.3881 16.0008 28.0849 15.8886 27.9002C15.7248 27.6304 15.6058 27.3284 15.4274 27.0713C15.3014 26.8894 15.303 26.4354 14.89 26.698C14.5191 26.9339 14.85 27.14 14.9352 27.3312C15.0817 27.659 15.2755 27.9629 15.4412 28.2815C15.5335 28.4588 15.5942 28.6612 15.386 28.7871C15.1794 28.9121 15.0461 28.7636 14.9469 28.5836C14.7331 28.1953 14.5187 27.8075 14.3096 27.4166C14.2212 27.2511 14.1374 27.1377 13.9317 27.2605C13.7296 27.3812 13.6897 27.5028 13.8155 27.7186C14.0381 28.1008 14.2402 28.4967 14.4474 28.8889C14.5426 29.0691 14.6004 29.267 14.3886 29.3906C14.1741 29.5157 14.0493 29.3442 13.9536 29.1731C13.7371 28.7864 13.5268 28.3959 13.3186 28.0042C13.2303 27.8381 13.1505 27.7319 12.9422 27.8568C12.7388 27.9788 12.6942 28.0867 12.8222 28.3058C13.0455 28.6874 13.2408 29.0874 13.4523 29.477C13.5502 29.6572 13.6253 29.8393 13.4112 29.9751C13.1962 30.1114 13.0872 29.9335 12.9663 29.782C12.5659 29.28 12.5827 28.4081 11.6211 28.3686C11.3654 28.3581 11.1248 28.2848 10.8795 28.4248C10.5943 28.5877 10.3114 28.7556 10.0337 28.9324C9.85509 29.046 9.68526 29.083 9.55816 28.8782C9.41714 28.651 9.57629 28.5215 9.73894 28.4186C10.0866 28.1985 10.4354 27.9798 10.7911 27.7748C10.9867 27.6622 11.1377 27.571 10.9736 27.2962C10.8276 27.0517 10.6923 27.1419 10.5212 27.2438C10.1523 27.4639 9.77575 27.6701 9.40244 27.8819C9.28021 27.7579 9.15807 27.6339 9.03596 27.5098C9.34033 27.1832 9.76206 27.0555 10.1098 26.8039C10.2819 26.6792 10.6295 26.6524 10.405 26.2611C10.2026 25.9079 10.0277 26.1788 9.85587 26.2712C9.58521 26.4167 9.32938 26.5923 9.0627 26.7462C8.85693 26.8649 8.60927 27.0967 8.42436 26.7967C8.22291 26.4698 8.55368 26.3676 8.7494 26.242C9.06095 26.0418 9.37846 25.852 9.6973 25.6648C9.88242 25.5562 9.97326 25.4432 9.84207 25.2091C9.70491 24.9646 9.56888 25.0317 9.39534 25.1442C9.13631 25.3122 8.87373 25.476 8.60241 25.6198C8.36899 25.7436 8.08509 26.0981 7.8689 25.7384C7.63681 25.3517 8.08208 25.2716 8.29515 25.1236C8.54845 24.9475 8.82024 24.7999 9.08921 24.6505C9.28474 24.5421 9.44123 24.4497 9.27479 24.1703C9.13113 23.9292 8.99595 24.0021 8.82488 24.1103C8.51212 24.3081 8.19359 24.4962 7.87607 24.6856C7.68613 24.7992 7.46308 24.9987 7.29609 24.7121C7.10038 24.3766 7.42109 24.2776 7.61493 24.1508C7.92485 23.9481 8.24232 23.7574 8.56175 23.5714C8.74066 23.4673 8.85989 23.382 8.71072 23.1333C8.56725 22.8941 8.4375 22.9553 8.26346 23.0635C7.9142 23.2804 7.55782 23.4845 7.20615 23.6974C7.03562 23.8006 6.85635 23.8756 6.72804 23.66C6.59786 23.4411 6.73943 23.3031 6.91097 23.198C7.26151 22.9833 7.61053 22.7659 7.96461 22.5579C8.16022 22.443 8.30002 22.344 8.13659 22.0687C7.98695 21.8167 7.85674 21.9134 7.69155 22.0185C7.37922 22.2176 7.06435 22.4126 6.74496 22.5986C6.55685 22.7082 6.33228 22.9063 6.16198 22.6199C5.99324 22.3361 6.23559 22.2066 6.43275 22.0871C6.64363 21.9591 6.88774 21.8668 7.05628 21.693C7.24537 21.4982 7.84715 21.5492 7.55318 21.0494C7.27874 20.5828 7.02599 21.1287 6.76606 21.209C6.40534 21.3209 6.10066 21.8051 5.74743 21.6622L5.73495 21.6571C3.84491 23.3515 2.79731 25.5336 2.14727 27.0295C1.42362 28.6942 1.19219 29.5088 0.931828 30.8368C0.820753 31.4031 0.704375 32.0628 0.594196 32.7974L0.638174 32.7554C1.32857 32.6491 1.86831 32.903 2.21932 33.5378C2.58268 34.1952 2.39882 34.8149 2.01179 35.3763C1.5708 36.0158 1.07261 36.5953 0.271573 36.7299C0.240734 36.7225 0.203501 36.7206 0.164825 36.7199C0.0280173 38.6817 -0.0155318 40.815 0.00470278 42.5742C0.0270037 44.5135 0.126695 45.9984 0.380348 47.7625C0.633963 49.5266 1.04142 51.57 1.43676 53.0619C1.83198 54.5539 2.21511 55.4946 2.59286 56.2455C2.97049 56.9966 3.34251 57.5583 3.5286 57.839C3.71461 58.1197 3.71461 58.1197 3.76214 58.2646C3.80966 58.4096 3.9046 58.6995 3.74498 58.9913C3.58541 59.2832 3.17151 59.5769 2.96453 59.7237C2.75743 59.8705 2.75743 59.8705 3.09736 60.562C3.43721 61.2534 4.117 62.6362 4.45682 63.3277C4.79679 64.0191 4.79679 64.0191 4.96997 63.9916C5.14316 63.9641 5.48937 63.9089 5.99476 63.8354C6.50004 63.7618 7.16435 63.6696 7.88991 63.4945C8.61532 63.3193 9.40178 63.0612 9.79508 62.9322C10.1884 62.8031 10.1884 62.8031 10.1884 62.8031C10.1884 62.8031 10.1884 62.8031 10.6482 62.9297C11.1079 63.0563 12.0275 63.3096 13.5629 63.5278C15.0982 63.7461 17.2493 63.9296 19.5397 63.9425C21.8301 63.9556 24.2597 63.7983 26.3125 63.5552C28.3653 63.3123 30.0414 62.9836 31.2225 62.6922C32.4034 62.4007 33.0893 62.1465 33.4324 62.0193C33.7753 61.8922 33.7753 61.8922 33.6829 60.7491C33.5905 59.6059 33.4057 57.3196 33.2725 55.7613C33.1393 54.2031 33.058 53.3728 32.9781 52.8656C32.8981 52.3584 32.8196 52.1741 32.6917 52.0587C32.5639 51.9434 32.3868 51.8969 30.9659 51.9368C30.7594 51.9425 30.5266 51.9502 30.2728 51.9591C30.2062 52.0482 30.1524 52.1626 30.1062 52.3085C29.535 54.1134 28.928 55.906 28.3156 57.6961C28.0342 58.5186 27.4784 58.9047 26.7715 58.6695C25.0711 58.1034 23.3689 57.5248 21.7348 56.7702C20.7898 56.3338 20.567 55.5726 20.9042 54.5448C21.1353 53.8402 21.3544 53.1313 21.579 52.4243C21.5799 52.4234 21.5803 52.4226 21.581 52.4218C21.6032 52.3873 21.6212 52.356 21.6354 52.3276C20.8735 52.3525 20.2324 52.3648 19.7257 52.3588C18.6409 52.346 18.1738 52.2488 17.6247 52.0542C17.0756 51.8598 16.4443 51.5683 16.0009 51.2581C15.5574 50.9482 15.3015 50.6198 15.0341 49.9679C14.7664 49.3163 14.4872 48.3409 14.3269 47.3312C14.1667 46.3215 14.1256 45.2775 14.0854 44.0656C14.0452 42.8539 14.006 41.4744 14.0354 39.8855C14.0648 38.2966 14.1626 36.4985 14.2625 35.3375C14.3623 34.1766 14.4643 33.6528 14.5817 33.1868C14.6991 32.7206 14.8322 32.3122 15.1243 31.8669C15.4163 31.4216 15.8672 30.9394 16.352 30.6056C16.8368 30.2716 17.3554 30.0859 19.1895 29.9889C21.0235 29.892 24.1731 29.8842 26.1135 29.8833C28.0536 29.8825 28.7843 29.8894 29.5426 29.8739C30.3007 29.8585 31.0862 29.821 31.8718 29.7836ZM20.2098 17.9103C20.0369 17.9006 19.8638 17.8921 19.6898 17.885C19.6929 17.9366 19.7428 18.046 19.7869 18.0671C19.9622 18.1508 20.0695 18.06 20.2098 17.9103ZM17.6563 17.8678C17.4755 17.8724 17.2939 17.8787 17.1116 17.8868C16.9998 18.0284 17.2048 18.1822 17.2694 18.3055C17.7206 19.1657 18.1697 20.0286 18.6607 20.8636C18.9286 21.3194 18.8487 21.5555 18.4119 21.8122C16.6595 22.8415 14.914 23.8855 13.1893 24.9657C12.6879 25.2798 12.4416 25.2364 12.154 24.6798C11.2816 22.991 10.3541 21.334 9.45437 19.661C9.41878 19.595 9.38419 19.5336 9.34595 19.4834C9.16403 19.5576 8.98457 19.6341 8.80764 19.7136C8.84266 19.7991 8.91981 19.8802 8.95903 19.9534C9.89712 21.702 10.8421 23.4465 11.7944 25.1864C12.1689 25.8703 12.5382 26.0089 13.143 25.6514C15.0695 24.512 16.9857 23.3533 18.904 22.1987C19.2218 22.0074 19.4308 21.7334 19.422 21.2767C19.4265 21.0966 19.3214 20.9099 19.222 20.7246C18.763 19.8689 18.2994 19.0161 17.8375 18.1622C17.8073 18.1065 17.7765 18.0512 17.7474 17.9949C17.721 17.9437 17.6902 17.9015 17.6563 17.8678ZM16.3449 17.9319C16.0136 17.9561 15.6801 17.9866 15.3438 18.0242C13.5283 18.2264 11.6355 18.6307 9.91333 19.2638C9.92417 19.3223 9.95248 19.3924 10.0001 19.478C10.8606 21.0277 11.7072 22.586 12.5399 24.1524C12.7013 24.4561 12.8384 24.4707 13.1056 24.3076C14.6843 23.3434 16.2723 22.3959 17.8543 21.4374C17.9674 21.3689 18.1319 21.3335 18.132 21.1388C18.1035 21.0815 18.0756 21.0244 18.0455 20.9688C17.5321 20.0223 17.0126 19.0796 16.5091 18.1272C16.4608 18.0361 16.4068 17.9733 16.3449 17.9319ZM25.0431 58.7051C24.2693 58.4024 23.4899 58.1151 22.7139 57.8187C22.4798 57.7293 22.2529 57.6054 22.1665 58.0108C22.0941 58.3503 21.844 58.7429 22.3159 58.9399C23.1201 59.2759 23.9441 59.5589 24.7065 59.8443C25.1069 59.897 25.2661 59.6947 25.4225 59.1826C25.5528 58.7557 25.2421 58.7829 25.0431 58.7051ZM28.909 52.013C28.5569 52.0278 28.1883 52.0438 27.8113 52.0604C27.8215 52.0651 27.8313 52.068 27.8413 52.0696C28.3716 52.154 28.2635 52.4692 28.1377 52.8522C28.0103 53.2402 27.8815 53.4156 27.4563 53.2201C26.8823 52.9563 26.2801 52.7585 25.6839 52.5525C25.3835 52.4488 25.0932 52.3074 24.7948 52.197L24.6967 52.2014C24.3097 52.2189 23.9379 52.2355 23.5819 52.2509C23.6002 52.4303 23.8093 52.4969 23.9702 52.5569C25.2491 53.0328 26.5315 53.4981 27.8079 53.9817C28.16 54.1151 28.3482 53.9741 28.4648 53.6434C28.5281 53.4632 28.583 53.2797 28.6449 53.099C28.8425 52.5227 28.9565 52.1902 28.909 52.013ZM27.5265 56.4535C27.4077 56.8263 27.208 56.9535 26.8338 56.8113C25.5602 56.3268 24.2801 55.861 23.0017 55.3908C22.7428 55.2957 22.5817 55.1408 22.6547 54.7459C22.8018 54.3185 22.9666 53.8148 23.149 53.3181C23.2614 53.0121 23.4895 52.9963 23.7509 53.0953C25.0442 53.5848 26.3377 54.0745 27.6328 54.5586C27.9666 54.6835 28.0706 54.8935 27.9362 55.2501C27.7871 55.646 27.6554 56.0496 27.5265 56.4535ZM23.5515 54.9496C24.4887 55.2801 25.4151 55.6446 26.3469 55.9925C26.9506 56.2179 27.3301 55.9277 27.3111 55.2796C27.3351 55.0578 27.1908 55.0193 27.0568 54.9701C26.0093 54.5842 24.9627 54.1966 23.9145 53.8129C23.3868 53.6196 23.5274 54.1486 23.3972 54.3685C23.264 54.5936 23.1826 54.8195 23.5515 54.9496ZM6.36776 55.7733C5.76778 56.958 5.12203 58.1136 4.27989 59.1319C4.26032 59.1613 4.24211 59.1921 4.22398 59.2233C4.16441 59.3259 4.10803 59.4322 4.02569 59.5068C3.65281 59.8449 3.66408 60.1705 3.91189 60.6102C4.32434 61.3428 4.67191 62.1167 5.03196 62.881C5.14589 63.1228 5.2669 63.2178 5.54333 63.1652C6.37528 63.0075 7.21013 62.8438 8.05058 62.7662C8.71602 62.7046 9.28727 62.4459 9.8276 62.1147C10.1169 61.9372 10.3974 61.7389 10.6787 61.539C10.7361 61.3546 10.8005 61.1723 10.8486 60.9853C10.8864 60.8383 10.9693 60.6598 10.8495 60.5417C10.7056 60.3996 10.5841 60.592 10.4605 60.6485C10.241 60.749 10.0285 60.8687 9.82019 60.9937C9.66479 61.0871 9.56034 61.0858 9.45979 60.9033C9.34883 60.7019 9.45394 60.624 9.59594 60.546C9.89056 60.3842 10.1777 60.2048 10.4813 60.0647C10.8509 59.8941 11.0498 59.7329 10.8201 59.238C10.5753 58.7107 10.3402 59.0207 10.0823 59.1432C9.93115 59.215 9.78737 59.304 9.63984 59.384C9.49207 59.4641 9.35624 59.5716 9.22937 59.3283C9.10372 59.0868 9.24637 59.0271 9.40341 58.9438C9.73286 58.7689 10.0505 58.5665 10.3878 58.4112C10.809 58.2176 10.7149 57.9527 10.5685 57.6101C10.4006 57.2171 10.2034 57.3461 9.96074 57.491C9.6881 57.6538 9.41106 57.8143 9.12118 57.9369C8.95681 58.0064 8.77579 58.3545 8.58163 57.9795C8.36724 57.5658 8.77778 57.5845 8.93607 57.4943C9.90982 56.9394 10.8882 56.3907 11.8882 55.8916C12.3102 55.6812 12.2221 55.4865 12.0731 55.1349C11.901 54.7293 11.7257 54.8177 11.4481 54.9726C10.1757 55.6816 8.89728 56.3785 7.61408 57.0655C7.4683 57.1435 7.31777 57.3548 7.12018 57.1933C6.90002 57.0133 7.04182 56.8291 7.12888 56.6344C7.19839 56.4788 7.21699 56.298 7.25909 56.1284C7.34814 55.7704 7.50982 55.2937 7.11628 55.1467C6.779 55.0208 6.54149 55.4305 6.36776 55.7733ZM2.24119 35.9854C2.153 36.1869 2.33944 36.2384 2.45207 36.2987C2.7405 36.4528 3.06289 36.4648 3.60112 36.4794C2.96453 37.1132 2.44919 37.6105 1.95307 38.1282C1.74499 38.3454 1.57622 38.5295 1.33399 38.1824C1.2626 38.0802 1.15449 37.9915 1.03105 38.1188C0.872919 38.2819 1.01803 38.3842 1.11238 38.486C1.38062 38.7755 1.65314 39.0604 1.92469 39.3463C2.02504 39.4519 2.12649 39.5822 2.26895 39.4093C2.38155 39.2725 2.29359 39.166 2.19413 39.09C1.85903 38.8339 2.05023 38.6548 2.2525 38.4456C2.94429 37.7293 3.62872 37.0049 4.30929 36.2766C4.39452 36.1852 4.58127 36.1077 4.45397 35.9185C4.36785 35.7907 4.26874 35.7099 4.09876 35.8118C3.60661 36.1064 3.10024 36.1113 2.59208 35.8498C2.42876 35.7655 2.30486 35.8394 2.24119 35.9854ZM6.57743 38.4363C6.08011 38.7251 5.56972 38.7251 5.06335 38.4654C4.88299 38.3729 4.78408 38.4806 4.71874 38.61C4.60825 38.829 4.82529 38.8417 4.92818 38.9081C5.21365 39.0926 5.54574 39.0576 6.01656 39.1081C5.42917 39.7151 4.92896 40.2111 4.45386 40.7327C4.22827 40.9803 4.04671 41.1528 3.79496 40.7808C3.71769 40.6667 3.6042 40.6157 3.49523 40.753C3.41686 40.8516 3.4392 40.9445 3.52252 41.0317C3.83925 41.3625 4.15525 41.6941 4.46933 42.0276C4.55398 42.1175 4.64193 42.1363 4.73246 42.0502C4.8571 41.9318 4.80584 41.8116 4.698 41.7313C4.32609 41.454 4.54283 41.2637 4.76096 41.0384C5.44141 40.3359 6.11126 39.6219 6.78122 38.9082C6.87249 38.8108 7.0385 38.7253 6.93429 38.5429C6.85405 38.4026 6.74208 38.3406 6.57743 38.4363ZM9.85953 42.0799C9.84382 41.1472 8.93217 40.3734 8.09062 40.6442C7.07807 40.9701 6.37372 41.6976 6.05079 42.7644C5.77706 43.6685 6.53322 44.6726 7.43349 44.6707C8.47001 44.6682 9.87766 43.1651 9.85953 42.0799ZM8.20388 41.0557C8.70429 40.9039 9.08723 41.1103 9.33215 41.5659C9.6072 42.0778 9.42201 42.4183 8.86796 42.4308C8.14996 42.4472 7.43138 42.4349 6.62383 42.4349C7.05219 41.775 7.5094 41.2665 8.20388 41.0557ZM7.03086 42.8562C7.71463 42.8365 8.39917 42.8487 9.17709 42.8487C8.81646 43.4739 8.37387 43.9182 7.77365 44.1575C7.34163 44.3297 6.93503 44.2556 6.62141 43.8591C6.42788 43.6145 6.33692 43.3236 6.44269 43.0256C6.54745 42.7305 6.83007 42.8618 7.03086 42.8562ZM0.528306 33.2507C0.46655 33.691 0.407523 34.1551 0.353369 34.6393C0.712211 34.6148 1.07086 34.5887 1.4299 34.5698C1.98956 34.5406 2.14836 34.2447 1.88566 33.7092C1.64663 33.222 1.2534 33.0868 0.528306 33.2507ZM0.31789 34.9659C0.278318 35.3411 0.242059 35.7275 0.209816 36.1236C0.201512 36.2266 0.193441 36.3302 0.185605 36.4343C0.261631 36.4181 0.335903 36.3947 0.377775 36.3253C0.892685 35.9741 1.42296 35.6389 1.70265 34.9659H0.31789Z"
    fill="black"
  />
  <path
    fill-rule="evenodd"
    clip-rule="evenodd"
    d="M31.8718 29.7836C32.2227 26.6634 32.5736 23.5433 32.7386 21.8849C32.9035 20.2265 32.8825 20.0297 32.872 19.9314C32.8615 19.833 32.8615 19.833 31.4562 19.5614C30.0509 19.2898 27.2403 18.7466 24.3606 18.3414C23.3878 18.2044 22.4071 18.0834 21.4119 17.9967C21.0715 18.1086 20.7501 18.279 20.4325 18.5013C20.2568 18.6244 20.0766 18.6962 20.2472 18.982C20.3993 19.2373 20.5374 19.1231 20.6979 19.0279C21.0688 18.8073 21.4447 18.5958 21.8102 18.3658C21.9844 18.2562 22.1174 18.2832 22.2317 18.442C22.3741 18.6403 22.2385 18.7691 22.1014 18.8603C21.7931 19.0657 21.4592 19.2307 21.1622 19.4518C20.9896 19.5803 20.5636 19.5801 20.8164 20.0184C21.0421 20.4093 21.2304 20.0712 21.4133 19.9772C21.7043 19.8278 21.9791 19.6432 22.2598 19.4719C22.4382 19.363 22.6368 19.2194 22.7899 19.4702C22.9695 19.7642 22.7239 19.8876 22.5334 20.0072C22.2024 20.215 21.8676 20.4161 21.532 20.6153C21.3533 20.7213 21.2429 20.8275 21.3789 21.067C21.5218 21.3183 21.6614 21.2211 21.8289 21.1182C22.1441 20.9244 22.4658 20.7422 22.7836 20.5531C22.9792 20.4366 23.2059 20.2659 23.3657 20.5447C23.5382 20.8458 23.2258 20.9175 23.0711 21.0667C22.6534 21.4699 21.7423 21.3966 21.9204 22.3796C21.4571 22.6816 21.7769 22.9793 21.9285 23.2731C22.0739 23.5549 22.2315 23.8293 22.3783 24.11C22.4741 24.2926 22.5175 24.4918 22.3116 24.6138C22.0983 24.74 21.9756 24.5731 21.879 24.3986C21.6644 24.0108 21.4515 23.6219 21.2422 23.2309C21.153 23.064 21.0655 22.9568 20.8614 23.0799C20.6602 23.2014 20.6207 23.3184 20.7492 23.5349C20.9643 23.897 21.1535 24.2762 21.3507 24.6499C21.451 24.84 21.5745 25.0585 21.3176 25.2C21.0724 25.335 20.9542 25.116 20.8503 24.9291C20.6758 24.6158 20.5161 24.2929 20.3324 23.9859C20.2299 23.8149 20.2078 23.489 19.8647 23.6905C19.4944 23.908 19.7562 24.1117 19.8572 24.3129C20.0186 24.634 20.1929 24.9479 20.3667 25.2616C20.475 25.4572 20.5828 25.6614 20.3239 25.8038C20.1071 25.923 19.9871 25.7434 19.8913 25.5744C19.6835 25.207 19.4824 24.8356 19.2811 24.4645C19.1908 24.2978 19.142 24.1172 18.8815 24.2778C18.6241 24.4365 18.6721 24.5802 18.7934 24.7897C19.0049 25.1542 19.2016 25.5283 19.4025 25.8997C19.499 26.078 19.5686 26.2731 19.3552 26.4013C19.1441 26.528 19.0143 26.364 18.9173 26.1923C18.6995 25.8066 18.4854 25.4183 18.2793 25.0254C18.1691 24.8154 18.0546 24.7623 17.8459 24.905C17.6569 25.0339 17.673 25.1463 17.7746 25.3226C17.9955 25.7063 18.2024 26.0991 18.4092 26.4916C18.5009 26.6656 18.5813 26.861 18.3616 26.9916C18.1553 27.1141 18.0164 26.9815 17.9171 26.7983C17.7058 26.4084 17.4988 26.0162 17.2898 25.6251C17.2043 25.4654 17.1171 25.3402 16.9106 25.4657C16.7164 25.5836 16.6521 25.6987 16.786 25.9221C16.9918 26.2649 17.1745 26.6235 17.3611 26.979C17.4666 27.1797 17.6448 27.4141 17.3786 27.5941C17.0995 27.7829 16.9885 27.4976 16.8762 27.3044C16.6963 26.9945 16.5357 26.6723 16.3587 26.3605C16.2537 26.1756 16.2052 25.8797 15.8808 26.0921C15.5582 26.3034 15.7991 26.4945 15.8889 26.6791C16.0366 26.9832 16.2068 27.2751 16.3673 27.5722C16.4771 27.7754 16.6495 28.0047 16.3881 28.1879C16.1027 28.3881 16.0008 28.0849 15.8886 27.9002C15.7248 27.6304 15.6058 27.3284 15.4274 27.0713C15.3014 26.8894 15.303 26.4354 14.89 26.698C14.5191 26.9339 14.85 27.14 14.9352 27.3312C15.0817 27.659 15.2755 27.9629 15.4412 28.2815C15.5335 28.4588 15.5942 28.6612 15.386 28.7871C15.1794 28.9121 15.0461 28.7636 14.9469 28.5836C14.7331 28.1953 14.5187 27.8075 14.3096 27.4166C14.2212 27.2511 14.1374 27.1377 13.9317 27.2605C13.7296 27.3812 13.6897 27.5028 13.8155 27.7186C14.0381 28.1008 14.2402 28.4967 14.4474 28.8889C14.5426 29.0691 14.6004 29.267 14.3886 29.3906C14.1741 29.5157 14.0493 29.3442 13.9536 29.1731C13.7371 28.7864 13.5268 28.3959 13.3186 28.0042C13.2303 27.8381 13.1505 27.7319 12.9422 27.8568C12.7388 27.9788 12.6942 28.0867 12.8222 28.3058C13.0455 28.6874 13.2408 29.0874 13.4523 29.477C13.5502 29.6572 13.6253 29.8393 13.4112 29.9751C13.1962 30.1114 13.0872 29.9335 12.9663 29.782C12.5659 29.28 12.5827 28.4081 11.6211 28.3686C11.3654 28.3581 11.1248 28.2848 10.8795 28.4248C10.5943 28.5877 10.3114 28.7556 10.0337 28.9324C9.85509 29.046 9.68526 29.083 9.55816 28.8782C9.41714 28.651 9.57629 28.5215 9.73894 28.4186C10.0866 28.1985 10.4354 27.9798 10.7911 27.7748C10.9867 27.6622 11.1377 27.571 10.9736 27.2962C10.8276 27.0517 10.6923 27.1419 10.5212 27.2438C10.1523 27.4639 9.77575 27.6701 9.40244 27.8819C9.28021 27.7579 9.15807 27.6339 9.03596 27.5098C9.34033 27.1832 9.76206 27.0555 10.1098 26.8039C10.2819 26.6792 10.6295 26.6524 10.405 26.2611C10.2026 25.9079 10.0277 26.1788 9.85587 26.2712C9.58521 26.4167 9.32938 26.5923 9.0627 26.7462C8.85693 26.8649 8.60927 27.0967 8.42436 26.7967C8.22291 26.4698 8.55368 26.3676 8.7494 26.242C9.06095 26.0418 9.37846 25.852 9.6973 25.6648C9.88242 25.5562 9.97326 25.4432 9.84207 25.2091C9.70491 24.9646 9.56888 25.0317 9.39534 25.1442C9.13631 25.3122 8.87373 25.476 8.60241 25.6198C8.36899 25.7436 8.08509 26.0981 7.8689 25.7384C7.63681 25.3517 8.08208 25.2716 8.29515 25.1236C8.54845 24.9475 8.82024 24.7999 9.08921 24.6505C9.28474 24.5421 9.44123 24.4497 9.27479 24.1703C9.13113 23.9292 8.99595 24.0021 8.82488 24.1103C8.51212 24.3081 8.19359 24.4962 7.87607 24.6856C7.68613 24.7992 7.46308 24.9987 7.29609 24.7121C7.10038 24.3766 7.42109 24.2776 7.61493 24.1508C7.92485 23.9481 8.24232 23.7574 8.56175 23.5714C8.74066 23.4673 8.85989 23.382 8.71072 23.1333C8.56725 22.8941 8.4375 22.9553 8.26346 23.0635C7.9142 23.2804 7.55782 23.4845 7.20615 23.6974C7.03562 23.8006 6.85635 23.8756 6.72804 23.66C6.59786 23.4411 6.73943 23.3031 6.91097 23.198C7.26151 22.9833 7.61053 22.7659 7.96461 22.5579C8.16022 22.443 8.30002 22.344 8.13659 22.0687C7.98695 21.8167 7.85674 21.9134 7.69155 22.0185C7.37922 22.2176 7.06435 22.4126 6.74496 22.5986C6.55685 22.7082 6.33228 22.9063 6.16198 22.6199C5.99324 22.3361 6.23559 22.2066 6.43275 22.0871C6.64363 21.9591 6.88774 21.8668 7.05628 21.693C7.24537 21.4982 7.84715 21.5492 7.55318 21.0494C7.27874 20.5828 7.02599 21.1287 6.76606 21.209C6.40534 21.3209 6.10066 21.8051 5.74743 21.6622L5.73495 21.6571C3.84491 23.3515 2.79731 25.5336 2.14727 27.0295C1.42362 28.6942 1.19219 29.5088 0.931828 30.8368C0.820753 31.4031 0.704375 32.0628 0.594196 32.7974L0.638174 32.7554C1.32857 32.6491 1.86831 32.903 2.21932 33.5378C2.58268 34.1952 2.39882 34.8149 2.01179 35.3763C1.5708 36.0158 1.07261 36.5953 0.271573 36.7299C0.240734 36.7225 0.203501 36.7206 0.164825 36.7199C0.0280173 38.6817 -0.0155318 40.815 0.00470278 42.5742C0.0270037 44.5135 0.126695 45.9984 0.380348 47.7625C0.633963 49.5266 1.04142 51.57 1.43676 53.0619C1.83198 54.5539 2.21511 55.4946 2.59286 56.2455C2.97049 56.9966 3.34251 57.5583 3.5286 57.839C3.71461 58.1197 3.71461 58.1197 3.76214 58.2646C3.80966 58.4096 3.9046 58.6995 3.74498 58.9913C3.58541 59.2832 3.17151 59.5769 2.96453 59.7237C2.75743 59.8705 2.75743 59.8705 3.09736 60.562C3.43721 61.2534 4.117 62.6362 4.45682 63.3277C4.79679 64.0191 4.79679 64.0191 4.96997 63.9916C5.14316 63.9641 5.48937 63.9089 5.99476 63.8354C6.50004 63.7618 7.16435 63.6696 7.88991 63.4945C8.61532 63.3193 9.40178 63.0612 9.79508 62.9322C10.1884 62.8031 10.1884 62.8031 10.1884 62.8031C10.1884 62.8031 10.1884 62.8031 10.6482 62.9297C11.1079 63.0563 12.0275 63.3096 13.5629 63.5278C15.0982 63.7461 17.2493 63.9296 19.5397 63.9425C21.8301 63.9556 24.2597 63.7983 26.3125 63.5552C28.3653 63.3123 30.0414 62.9836 31.2225 62.6922C32.4034 62.4007 33.0893 62.1465 33.4324 62.0193C33.7753 61.8922 33.7753 61.8922 33.6829 60.7491C33.5905 59.6059 33.4057 57.3196 33.2725 55.7613C33.1393 54.2031 33.058 53.3728 32.9781 52.8656C32.8981 52.3584 32.8196 52.1741 32.6917 52.0587C32.5639 51.9434 32.3868 51.8969 30.9659 51.9368C30.7594 51.9425 30.5266 51.9502 30.2728 51.9591C30.2062 52.0482 30.1524 52.1626 30.1062 52.3085C29.535 54.1134 28.928 55.906 28.3156 57.6961C28.0342 58.5186 27.4784 58.9047 26.7715 58.6695C25.0711 58.1034 23.3689 57.5248 21.7348 56.7702C20.7898 56.3338 20.567 55.5726 20.9042 54.5448C21.1353 53.8402 21.3544 53.1313 21.579 52.4243C21.5799 52.4234 21.5803 52.4226 21.581 52.4218C21.6032 52.3873 21.6212 52.356 21.6354 52.3276C20.8735 52.3525 20.2324 52.3648 19.7257 52.3588C18.6409 52.346 18.1738 52.2488 17.6247 52.0542C17.0756 51.8598 16.4443 51.5683 16.0009 51.2581C15.5574 50.9482 15.3015 50.6198 15.0341 49.9679C14.7664 49.3163 14.4872 48.3409 14.3269 47.3312C14.1667 46.3215 14.1256 45.2775 14.0854 44.0656C14.0452 42.8539 14.006 41.4744 14.0354 39.8855C14.0648 38.2966 14.1626 36.4985 14.2625 35.3375C14.3623 34.1766 14.4643 33.6528 14.5817 33.1868C14.6991 32.7206 14.8322 32.3122 15.1243 31.8669C15.4163 31.4216 15.8672 30.9394 16.352 30.6056C16.8368 30.2716 17.3554 30.0859 19.1895 29.9889C21.0235 29.892 24.1731 29.8842 26.1135 29.8833C28.0536 29.8825 28.7843 29.8894 29.5426 29.8739C30.3007 29.8585 31.0862 29.821 31.8718 29.7836ZM20.2098 17.9103C20.0369 17.9006 19.8638 17.8921 19.6898 17.885C19.6929 17.9366 19.7428 18.046 19.7869 18.0671C19.9622 18.1508 20.0695 18.06 20.2098 17.9103ZM17.6563 17.8678C17.4755 17.8724 17.2939 17.8787 17.1116 17.8868C16.9998 18.0284 17.2048 18.1822 17.2694 18.3055C17.7206 19.1657 18.1697 20.0286 18.6607 20.8636C18.9286 21.3194 18.8487 21.5555 18.4119 21.8122C16.6595 22.8415 14.914 23.8855 13.1893 24.9657C12.6879 25.2798 12.4416 25.2364 12.154 24.6798C11.2816 22.991 10.3541 21.334 9.45437 19.661C9.41878 19.595 9.38419 19.5336 9.34595 19.4834C9.16403 19.5576 8.98457 19.6341 8.80764 19.7136C8.84266 19.7991 8.91981 19.8802 8.95903 19.9534C9.89712 21.702 10.8421 23.4465 11.7944 25.1864C12.1689 25.8703 12.5382 26.0089 13.143 25.6514C15.0695 24.512 16.9857 23.3533 18.904 22.1987C19.2218 22.0074 19.4308 21.7334 19.422 21.2767C19.4265 21.0966 19.3214 20.9099 19.222 20.7246C18.763 19.8689 18.2994 19.0161 17.8375 18.1622C17.8073 18.1065 17.7765 18.0512 17.7474 17.9949C17.721 17.9437 17.6902 17.9015 17.6563 17.8678ZM16.3449 17.9319C16.0136 17.9561 15.6801 17.9866 15.3438 18.0242C13.5283 18.2264 11.6355 18.6307 9.91333 19.2638C9.92417 19.3223 9.95248 19.3924 10.0001 19.478C10.8606 21.0277 11.7072 22.586 12.5399 24.1524C12.7013 24.4561 12.8384 24.4707 13.1056 24.3076C14.6843 23.3434 16.2723 22.3959 17.8543 21.4374C17.9674 21.3689 18.1319 21.3335 18.132 21.1388C18.1035 21.0815 18.0756 21.0244 18.0455 20.9688C17.5321 20.0223 17.0126 19.0796 16.5091 18.1272C16.4608 18.0361 16.4068 17.9733 16.3449 17.9319ZM25.0431 58.7051C24.2693 58.4024 23.4899 58.1151 22.7139 57.8187C22.4798 57.7293 22.2529 57.6054 22.1665 58.0108C22.0941 58.3503 21.844 58.7429 22.3159 58.9399C23.1201 59.2759 23.9441 59.5589 24.7065 59.8443C25.1069 59.897 25.2661 59.6947 25.4225 59.1826C25.5528 58.7557 25.2421 58.7829 25.0431 58.7051ZM28.909 52.013C28.5569 52.0278 28.1883 52.0438 27.8113 52.0604C27.8215 52.0651 27.8313 52.068 27.8413 52.0696C28.3716 52.154 28.2635 52.4692 28.1377 52.8522C28.0103 53.2402 27.8815 53.4156 27.4563 53.2201C26.8823 52.9563 26.2801 52.7585 25.6839 52.5525C25.3835 52.4488 25.0932 52.3074 24.7948 52.197L24.6967 52.2014C24.3097 52.2189 23.9379 52.2355 23.5819 52.2509C23.6002 52.4303 23.8093 52.4969 23.9702 52.5569C25.2491 53.0328 26.5315 53.4981 27.8079 53.9817C28.16 54.1151 28.3482 53.9741 28.4648 53.6434C28.5281 53.4632 28.583 53.2797 28.6449 53.099C28.8425 52.5227 28.9565 52.1902 28.909 52.013ZM27.5265 56.4535C27.4077 56.8263 27.208 56.9535 26.8338 56.8113C25.5602 56.3268 24.2801 55.861 23.0017 55.3908C22.7428 55.2957 22.5817 55.1408 22.6547 54.7459C22.8018 54.3185 22.9666 53.8148 23.149 53.3181C23.2614 53.0121 23.4895 52.9963 23.7509 53.0953C25.0442 53.5848 26.3377 54.0745 27.6328 54.5586C27.9666 54.6835 28.0706 54.8935 27.9362 55.2501C27.7871 55.646 27.6554 56.0496 27.5265 56.4535ZM23.5515 54.9496C24.4887 55.2801 25.4151 55.6446 26.3469 55.9925C26.9506 56.2179 27.3301 55.9277 27.3111 55.2796C27.3351 55.0578 27.1908 55.0193 27.0568 54.9701C26.0093 54.5842 24.9627 54.1966 23.9145 53.8129C23.3868 53.6196 23.5274 54.1486 23.3972 54.3685C23.264 54.5936 23.1826 54.8195 23.5515 54.9496ZM6.36776 55.7733C5.76778 56.958 5.12203 58.1136 4.27989 59.1319C4.26032 59.1613 4.24211 59.1921 4.22398 59.2233C4.16441 59.3259 4.10803 59.4322 4.02569 59.5068C3.65281 59.8449 3.66408 60.1705 3.91189 60.6102C4.32434 61.3428 4.67191 62.1167 5.03196 62.881C5.14589 63.1228 5.2669 63.2178 5.54333 63.1652C6.37528 63.0075 7.21013 62.8438 8.05058 62.7662C8.71602 62.7046 9.28727 62.4459 9.8276 62.1147C10.1169 61.9372 10.3974 61.7389 10.6787 61.539C10.7361 61.3546 10.8005 61.1723 10.8486 60.9853C10.8864 60.8383 10.9693 60.6598 10.8495 60.5417C10.7056 60.3996 10.5841 60.592 10.4605 60.6485C10.241 60.749 10.0285 60.8687 9.82019 60.9937C9.66479 61.0871 9.56034 61.0858 9.45979 60.9033C9.34883 60.7019 9.45394 60.624 9.59594 60.546C9.89056 60.3842 10.1777 60.2048 10.4813 60.0647C10.8509 59.8941 11.0498 59.7329 10.8201 59.238C10.5753 58.7107 10.3402 59.0207 10.0823 59.1432C9.93115 59.215 9.78737 59.304 9.63984 59.384C9.49207 59.4641 9.35624 59.5716 9.22937 59.3283C9.10372 59.0868 9.24637 59.0271 9.40341 58.9438C9.73286 58.7689 10.0505 58.5665 10.3878 58.4112C10.809 58.2176 10.7149 57.9527 10.5685 57.6101C10.4006 57.2171 10.2034 57.3461 9.96074 57.491C9.6881 57.6538 9.41106 57.8143 9.12118 57.9369C8.95681 58.0064 8.77579 58.3545 8.58163 57.9795C8.36724 57.5658 8.77778 57.5845 8.93607 57.4943C9.90982 56.9394 10.8882 56.3907 11.8882 55.8916C12.3102 55.6812 12.2221 55.4865 12.0731 55.1349C11.901 54.7293 11.7257 54.8177 11.4481 54.9726C10.1757 55.6816 8.89728 56.3785 7.61408 57.0655C7.4683 57.1435 7.31777 57.3548 7.12018 57.1933C6.90002 57.0133 7.04182 56.8291 7.12888 56.6344C7.19839 56.4788 7.21699 56.298 7.25909 56.1284C7.34814 55.7704 7.50982 55.2937 7.11628 55.1467C6.779 55.0208 6.54149 55.4305 6.36776 55.7733ZM2.24119 35.9854C2.153 36.1869 2.33944 36.2384 2.45207 36.2987C2.7405 36.4528 3.06289 36.4648 3.60112 36.4794C2.96453 37.1132 2.44919 37.6105 1.95307 38.1282C1.74499 38.3454 1.57622 38.5295 1.33399 38.1824C1.2626 38.0802 1.15449 37.9915 1.03105 38.1188C0.872919 38.2819 1.01803 38.3842 1.11238 38.486C1.38062 38.7755 1.65314 39.0604 1.92469 39.3463C2.02504 39.4519 2.12649 39.5822 2.26895 39.4093C2.38155 39.2725 2.29359 39.166 2.19413 39.09C1.85903 38.8339 2.05023 38.6548 2.2525 38.4456C2.94429 37.7293 3.62872 37.0049 4.30929 36.2766C4.39452 36.1852 4.58127 36.1077 4.45397 35.9185C4.36785 35.7907 4.26874 35.7099 4.09876 35.8118C3.60661 36.1064 3.10024 36.1113 2.59208 35.8498C2.42876 35.7655 2.30486 35.8394 2.24119 35.9854ZM6.57743 38.4363C6.08011 38.7251 5.56972 38.7251 5.06335 38.4654C4.88299 38.3729 4.78408 38.4806 4.71874 38.61C4.60825 38.829 4.82529 38.8417 4.92818 38.9081C5.21365 39.0926 5.54574 39.0576 6.01656 39.1081C5.42917 39.7151 4.92896 40.2111 4.45386 40.7327C4.22827 40.9803 4.04671 41.1528 3.79496 40.7808C3.71769 40.6667 3.6042 40.6157 3.49523 40.753C3.41686 40.8516 3.4392 40.9445 3.52252 41.0317C3.83925 41.3625 4.15525 41.6941 4.46933 42.0276C4.55398 42.1175 4.64193 42.1363 4.73246 42.0502C4.8571 41.9318 4.80584 41.8116 4.698 41.7313C4.32609 41.454 4.54283 41.2637 4.76096 41.0384C5.44141 40.3359 6.11126 39.6219 6.78122 38.9082C6.87249 38.8108 7.0385 38.7253 6.93429 38.5429C6.85405 38.4026 6.74208 38.3406 6.57743 38.4363ZM9.85953 42.0799C9.84382 41.1472 8.93217 40.3734 8.09062 40.6442C7.07807 40.9701 6.37372 41.6976 6.05079 42.7644C5.77706 43.6685 6.53322 44.6726 7.43349 44.6707C8.47001 44.6682 9.87766 43.1651 9.85953 42.0799ZM8.20388 41.0557C8.70429 40.9039 9.08723 41.1103 9.33215 41.5659C9.6072 42.0778 9.42201 42.4183 8.86796 42.4308C8.14996 42.4472 7.43138 42.4349 6.62383 42.4349C7.05219 41.775 7.5094 41.2665 8.20388 41.0557ZM7.03086 42.8562C7.71463 42.8365 8.39917 42.8487 9.17709 42.8487C8.81646 43.4739 8.37387 43.9182 7.77365 44.1575C7.34163 44.3297 6.93503 44.2556 6.62141 43.8591C6.42788 43.6145 6.33692 43.3236 6.44269 43.0256C6.54745 42.7305 6.83007 42.8618 7.03086 42.8562ZM0.528306 33.2507C0.46655 33.691 0.407523 34.1551 0.353369 34.6393C0.712211 34.6148 1.07086 34.5887 1.4299 34.5698C1.98956 34.5406 2.14836 34.2447 1.88566 33.7092C1.64663 33.222 1.2534 33.0868 0.528306 33.2507ZM0.31789 34.9659C0.278318 35.3411 0.242059 35.7275 0.209816 36.1236C0.201512 36.2266 0.193441 36.3302 0.185605 36.4343C0.261631 36.4181 0.335903 36.3947 0.377775 36.3253C0.892685 35.9741 1.42296 35.6389 1.70265 34.9659H0.31789Z"
    fill="white"
  />
  <path
    d="M68.21 41.9978C68.4495 42.1616 68.7197 42.1125 68.9798 42.1128C71.1901 42.1161 73.4008 42.1238 75.611 42.1064C75.7371 42.1056 75.8403 42.1115 75.9224 42.1356C75.8644 43.9178 75.7348 45.8507 75.5913 47.3591C75.4111 49.2537 75.2094 50.4784 74.8382 51.8861C74.4669 53.2937 73.9263 54.8842 73.4491 56.0162C72.972 57.1482 72.5586 57.8216 72.0361 58.4919C71.5138 59.1622 70.8826 59.8294 70.2569 60.3727C69.6313 60.9162 69.0111 61.3357 67.8292 61.8284C67.5646 61.9386 67.2718 62.0526 66.9525 62.1672C66.8459 62.0772 66.7633 61.9009 66.6619 61.622C66.6476 61.5826 66.6065 61.5151 66.6099 61.5128C67.1799 61.1232 66.6326 60.484 66.9198 60.0137C67.2785 59.4258 67.2566 58.7924 66.935 58.1849C66.4805 57.3264 66.0137 56.4752 65.549 55.6226C65.4636 55.4659 65.3945 55.2077 65.1572 55.3899C64.8084 55.6577 64.7052 55.3928 64.5804 55.1389C64.571 55.1201 64.5577 55.1035 64.5471 55.0853C64.2085 54.5105 64.0472 53.5674 63.5232 53.4428C63.0663 53.3343 62.4412 53.9809 61.8997 54.3108C61.393 54.6196 60.6274 54.8477 60.4733 55.3C60.3135 55.7689 60.9598 56.3475 61.2159 56.8985C61.3564 57.2007 61.7612 57.519 61.1739 57.8129C60.998 57.9009 61.1574 58.0771 61.2225 58.1977C61.6939 59.0707 62.1597 59.9473 62.6469 60.8106C62.919 61.2929 63.331 61.5904 63.866 61.6797C64.2311 61.7405 64.6481 61.6649 64.8379 62.1541C64.8848 62.2752 65.0479 62.2844 65.1631 62.2083C65.5832 61.931 65.6637 62.3421 65.7299 62.5662C64.859 62.8236 63.8586 63.0658 62.7492 63.2559C60.595 63.6249 58.0302 63.7973 55.0719 63.8437C52.1135 63.8902 48.7617 63.8105 45.8958 63.6854C45.5308 63.6694 45.1738 63.6527 44.8234 63.6354C44.813 63.5876 44.8114 63.5252 44.8211 63.444C45.847 62.0443 46.8654 60.6381 47.9037 59.2485C48.174 58.8868 47.9668 58.7339 47.7258 58.541C45.9208 57.0958 44.1102 55.6583 42.3233 54.1885C41.9467 53.8786 41.7759 53.9558 41.5143 54.3241C40.5568 55.6718 39.5677 56.9943 38.5905 58.3264C38.564 58.365 38.5375 58.4033 38.5109 58.4418C38.4545 58.5238 38.398 58.6057 38.3414 58.6876C38.3434 58.7296 38.3411 58.7712 38.3347 58.8127C38.2943 58.8563 38.2541 58.8998 38.2138 58.9434C38.2081 58.9537 38.2023 58.9631 38.1961 58.9717C38.212 56.3566 38.2536 52.3194 38.2592 47.8263C38.2657 42.5698 38.2227 36.6897 38.2045 32.1486C38.1952 29.8299 38.1923 27.8603 38.1922 26.226L38.5692 26.2042C39.0234 26.3828 39.1352 26.5801 38.6059 26.8279L38.6047 26.8287L38.6035 26.8294L38.6023 26.8301L38.6012 26.8309L38.5998 26.8318L38.5985 26.8328L38.5974 26.8336L38.5966 26.8344L38.5952 26.8361L38.594 26.8373L38.5928 26.8384L38.5921 26.8392L38.5905 26.8408L38.5892 26.8423L38.5884 26.8438L38.5876 26.8446L38.5864 26.8466L38.585 26.8487L38.5843 26.8505L38.5831 26.8521L38.5823 26.8542L38.5815 26.8554L38.5805 26.8579L38.5796 26.86L38.5787 26.862L38.578 26.864L38.5776 26.8653L38.5757 26.8702L38.5747 26.8728L38.5739 26.8749L38.5735 26.8761L38.5728 26.879L38.5718 26.8818L38.571 26.884L38.5703 26.8864L38.57 26.8877L38.5696 26.8889L38.5692 26.891L38.5682 26.8938L38.5673 26.8964L38.5665 26.8993L38.5661 26.9005L38.5658 26.9018L38.5654 26.9038L38.5646 26.9067L38.5638 26.9092L38.5633 26.9121L38.5629 26.9133L38.5626 26.9145L38.5622 26.9166L38.5616 26.9195L38.5607 26.9223L38.5601 26.9248L38.5597 26.926L38.5594 26.9273L38.559 26.9289L38.5581 26.9322L38.5572 26.9348L38.5567 26.9373L38.5563 26.9385L38.556 26.9402L38.5556 26.9418L38.5551 26.9451L38.5542 26.9478L38.5534 26.9502L38.5528 26.9527L38.5524 26.9543L38.5514 26.9576L38.5506 26.9605L38.5501 26.9629L38.5494 26.9653L38.549 26.967L38.5487 26.9682L38.5483 26.9703L38.5474 26.9731L38.5466 26.9754L38.5461 26.9779L38.5458 26.9791L38.5454 26.9803L38.545 26.9824L38.5441 26.9853L38.5433 26.9874L38.5427 26.9895L38.5423 26.9907L38.542 26.992L38.5412 26.9936L38.5403 26.9961C38.8498 27.149 38.869 27.6721 39.1592 27.7108L39.1737 27.7128L39.1878 27.7149L39.2013 27.7172L39.2029 27.7175L39.2148 27.72L39.2168 27.7204L39.2279 27.7229L39.2303 27.7233L39.2408 27.7257L39.2435 27.7266L39.2533 27.729L39.2564 27.7299L39.2653 27.7323L39.2688 27.7336L39.2772 27.736L39.2811 27.7373L39.2888 27.7397L39.2928 27.741L39.2999 27.7434L39.3042 27.7451L39.3108 27.7475L39.3154 27.7492L39.3214 27.7517L39.3262 27.7537L39.3317 27.7562L39.3367 27.7587L39.3417 27.7611L39.3469 27.7636L39.3514 27.7656L39.3609 27.7707L39.3665 27.7735L39.3701 27.7756L39.3759 27.7789L39.379 27.7809L39.385 27.7846L39.3877 27.7867L39.3938 27.7904L39.3961 27.792L39.4024 27.7962L39.4044 27.7979L39.4124 27.8038L39.4189 27.8086L39.4204 27.8098L39.428 27.8159L39.4347 27.8215L39.4355 27.8223L39.4422 27.8283L39.4494 27.8349L39.4564 27.8418L39.4632 27.8486L39.4697 27.8556L39.4759 27.8626L39.4767 27.8634L39.4821 27.8698L39.4829 27.8706L39.4881 27.8769L39.4893 27.8782L39.4942 27.8842L39.4953 27.8859L39.4998 27.8917L39.5014 27.8938L39.5056 27.8994L39.5072 27.9014L39.5112 27.907L39.5131 27.9095L39.5166 27.9147L39.5186 27.9176L39.5221 27.9226L39.524 27.9259L39.5271 27.9307L39.5295 27.934L39.5322 27.9386L39.5345 27.9423L39.5373 27.9468L39.54 27.9509L39.5423 27.9551L39.5451 27.9595L39.5474 27.9632L39.5501 27.9681L39.5521 27.9718L39.5548 27.9769L39.5568 27.9802L39.5599 27.9857L39.5614 27.989L39.5646 27.9948L39.5661 27.9977L39.5692 28.0039L39.5704 28.0068L39.5739 28.0132L39.5751 28.0152L39.5786 28.0222L39.5794 28.0243L39.5833 28.0316L39.5841 28.0333L39.588 28.041L39.5887 28.0422L39.5927 28.0502L39.5972 28.0594L39.6018 28.069L39.6065 28.0786L39.611 28.0879L39.6154 28.0972L39.62 28.1063L39.6204 28.1076L39.6245 28.1159L39.6253 28.1172L39.6293 28.1253L39.6301 28.127L39.634 28.1348L39.6347 28.136L39.6354 28.1372L39.6362 28.1385L39.6377 28.1409L39.6385 28.1422L39.6393 28.1434L39.6401 28.1446L39.6407 28.1458L39.6411 28.1471L39.6418 28.1483L39.6426 28.1495L39.6434 28.1508L39.6442 28.152L39.6457 28.1545C39.643 28.6539 39.6403 29.1533 39.6377 29.6526C39.2242 29.9461 38.7488 29.7106 38.3144 29.8253C38.3102 29.8609 38.3099 29.8967 38.3136 29.9324C38.766 29.9256 39.2229 30.0316 39.6695 29.8736C39.6868 29.8458 39.6973 29.8193 39.7009 29.7939C39.894 29.2564 39.7366 28.6942 39.7798 28.1463C39.9681 28.0788 39.8942 27.7144 40.1709 27.7543C40.3884 27.7857 40.3077 28.0223 40.3948 28.1452C40.3903 29.3828 40.3858 30.6204 40.3814 31.8578C40.0429 32.1122 39.6565 31.9312 39.2965 31.991C39.2063 31.9079 39.106 31.8196 38.9962 31.9336C38.9543 31.9768 38.9308 32.1012 38.9592 32.147C39.063 32.3145 39.1862 32.2471 39.2986 32.1407C39.6933 32.0738 40.1222 32.3055 40.4882 31.9887C40.4987 30.7097 40.5093 29.4305 40.5198 28.1513C40.7586 27.9023 40.9961 27.4135 41.2397 28.1472C41.2274 29.2108 41.2153 30.2744 41.2029 31.3379C41.088 31.4203 41.0464 31.5273 41.1411 31.647C41.1696 31.6831 41.2633 31.7066 41.298 31.6847C41.4207 31.6071 41.4122 31.4824 41.3642 31.3567C41.3661 30.2878 41.3677 29.2188 41.3695 28.1499C41.6088 27.6432 41.847 27.663 42.0843 28.1516C42.0807 29.1897 42.0888 30.228 42.0676 31.2655C42.0598 31.6368 42.1808 32.0283 41.9635 32.3798C41.518 32.3666 41.0725 32.348 40.6269 32.3432C40.506 32.342 40.3622 32.3787 40.4081 32.5584C40.4379 32.6754 40.568 32.7125 40.6584 32.656C41.1123 32.3724 41.6207 32.6267 42.0859 32.4809C42.2724 32.3801 42.227 32.1937 42.2268 32.0315C42.2253 30.7365 42.2195 29.4416 42.2151 28.1466C42.3653 28.0554 42.2536 27.7423 42.5216 27.7483C42.6845 27.752 42.7015 27.8801 42.7311 28.0014C42.8977 28.9822 42.7816 29.9703 42.7975 30.9547C42.6422 31.0759 42.6163 31.2262 42.7375 31.3816C42.7902 31.4495 42.8809 31.4431 42.9486 31.3757C43.0876 31.2368 42.9779 31.107 42.9329 30.9752C42.943 30.7224 42.9471 30.4689 42.9641 30.2165C43.0135 29.4844 42.847 28.7411 43.0671 28.0181C43.2296 27.607 43.3927 27.6605 43.556 28.0177C43.7941 28.884 43.6006 29.7709 43.6708 30.6445C43.6897 30.879 43.5577 31.1524 43.8013 31.3419C44.3618 31.3573 44.9221 31.3725 45.4824 31.3878C45.5524 31.4721 45.6327 31.5113 45.7198 31.4218C45.7816 31.3583 45.7801 31.2747 45.7285 31.2055C45.6525 31.1035 45.5694 31.1313 45.4908 31.2084C44.9697 31.2136 44.4487 31.2188 43.9277 31.224C43.7565 30.0714 43.7893 28.9191 43.9316 27.7669C44.1278 27.7188 44.288 27.736 44.3116 28.0004C44.4698 28.4345 44.3592 28.8893 44.4049 29.3311C44.443 29.6989 44.2608 30.0979 44.5366 30.4334C45.1395 30.4467 45.7424 30.4599 46.3453 30.4731C46.4194 30.5571 46.5057 30.6079 46.6008 30.5207C46.6639 30.4628 46.685 30.3759 46.6308 30.2957C46.533 30.1518 46.4296 30.2091 46.3284 30.2949C45.7783 30.299 45.2281 30.3031 44.6781 30.307C44.4831 29.5471 44.5264 28.7841 44.6516 28.02C44.6916 27.8342 44.7874 27.7118 44.9821 27.7479C45.4946 27.843 45.5318 27.5222 45.4949 27.1195C45.4834 26.9954 45.5013 26.8685 45.5057 26.7429C45.6377 26.7302 45.7723 26.7253 45.8668 26.6042C46.2666 26.6084 46.6665 26.6126 47.0663 26.6167C47.0663 27.2096 47.0663 27.8026 47.0663 28.3956C47.1404 28.3948 47.2145 28.3939 47.2886 28.3935C47.2484 27.7987 47.3433 27.2069 47.2221 26.6105C47.2017 26.3714 47.0294 26.3815 46.8719 26.3794C46.5357 26.3748 46.1997 26.3769 45.8635 26.3761C45.8248 26.3656 45.786 26.3551 45.7473 26.3446C45.0617 25.9849 45.7546 25.9011 45.8631 25.7004C46.3535 25.6954 46.8438 25.6903 47.334 25.6852C47.4549 25.7261 47.5626 25.8867 47.7008 25.7565C47.7444 25.7153 47.7703 25.5972 47.7462 25.5428C47.6833 25.4004 47.5628 25.4238 47.4479 25.4815C46.8791 25.4782 46.3103 25.4752 45.7413 25.4721C45.3669 25.4072 45.4853 25.0891 45.5021 24.874C45.5363 24.4377 45.4007 24.247 44.9734 24.311C44.7679 24.3417 44.564 24.3265 44.5422 24.0267C44.5482 23.6226 44.586 23.2154 44.5526 22.815C44.5075 22.2748 44.6546 22.0188 45.215 22.0868C45.5933 22.1326 45.981 22.092 46.3646 22.0901C46.4696 22.1551 46.5805 22.2184 46.67 22.0777C46.6958 22.0374 46.6974 21.9476 46.6716 21.9092C46.5867 21.7825 46.4697 21.8217 46.3579 21.8726C45.7511 21.8723 45.1444 21.8717 44.5375 21.8713C44.2836 22.0285 44.4192 22.2854 44.4099 22.4935C44.3827 23.1015 44.4914 23.728 44.1463 24.2831C44.0322 24.286 43.9181 24.2892 43.804 24.2921C43.5953 23.1091 43.7533 21.9135 43.6968 20.7252C43.9405 20.5729 44.2105 20.6883 44.4623 20.6407C44.6932 20.597 44.998 20.8131 45.143 20.4421C45.1454 20.1885 45.1477 19.9348 45.1499 19.681C45.2443 19.5649 45.3302 19.4409 45.1821 19.3103C45.1197 19.2554 45.03 19.2641 44.9713 19.3374C44.8686 19.4656 44.962 19.5653 45.0235 19.6679C45.0145 19.9235 45.0057 20.1792 44.9968 20.4347C44.5193 20.518 44.0157 20.2941 43.5546 20.571C43.5495 20.8457 43.5519 21.1208 43.5378 21.395C43.4928 22.2768 43.6435 23.166 43.4468 24.0417C43.2756 24.4373 43.1048 24.4385 42.9343 24.0409C42.8311 23.8451 42.8451 23.6314 42.8454 23.4187C42.847 22.1185 42.8489 20.8182 42.845 19.5179C42.8447 19.3877 42.9123 19.1565 42.6994 19.1799C42.4422 19.2083 42.6464 19.3952 42.6482 19.5164C42.6709 21.1093 42.784 22.7038 42.5749 24.2927C42.4594 24.2906 42.3441 24.289 42.2285 24.2867C41.9935 23.3988 42.1855 22.4845 42.0786 21.5885C42.1163 21.4682 42.1397 21.3441 42.0116 21.2723C41.9778 21.2534 41.8873 21.2822 41.8643 21.3184C41.7817 21.4484 41.8494 21.5404 41.9604 21.6089C41.9019 22.4182 42.0855 23.2392 41.8545 24.0403C41.8025 24.148 41.7975 24.2933 41.6383 24.3105C41.4449 24.3313 41.4165 24.1703 41.3571 24.0406C41.1296 23.5461 41.3266 23.012 41.2286 22.5055C40.9049 22.2248 40.5145 22.446 40.1663 22.3488C40.1576 21.8415 40.1488 21.3342 40.14 20.8268C40.1953 20.7022 40.2024 20.579 40.0827 20.498C40.0488 20.4752 39.9541 20.4955 39.9254 20.5308C39.8314 20.646 39.868 20.7583 39.9702 20.8523C39.9908 21.3979 40.0117 21.9437 40.0324 22.4893C40.3633 22.737 40.7538 22.5285 41.1018 22.6455C41.1146 23.1977 41.1385 23.7507 40.9887 24.2906C40.8734 24.2903 40.7581 24.2901 40.6429 24.2901C40.5966 23.9087 40.5503 23.5274 40.5039 23.1461C40.1124 22.8776 39.6875 23.0405 39.2751 23.0404C39.1225 22.996 38.9654 22.9524 38.8424 23.099C38.8208 23.1248 38.8416 23.2222 38.8723 23.2592C39.0083 23.4222 39.1466 23.3693 39.278 23.2433C39.6053 23.2579 39.9328 23.2723 40.2601 23.2867C40.2621 23.4916 40.2637 23.6967 40.2656 23.9017C40.2337 23.9492 40.2018 23.9966 40.1699 24.0442C40.1427 24.1983 40.1415 24.3862 39.9063 24.2699C39.9165 24.0582 39.9145 23.8488 39.8001 23.6615C39.2888 23.3664 38.7303 23.6104 38.2023 23.5061L38.1984 23.5073L38.2004 22.4359C38.2043 20.4684 38.2051 19.7356 38.206 19.0026C38.6637 18.8829 39.1212 18.7633 41.6167 18.5809C44.1121 18.3984 48.6454 18.1533 52.4635 18.1298C56.2816 18.1062 59.3846 18.3044 61.8967 18.6983C64.4087 19.0923 66.3301 19.6822 67.6149 20.2239C67.7541 20.2826 67.8855 20.3407 68.0107 20.3985C67.2063 20.8747 66.4657 21.3141 65.7239 21.7509C64.5379 22.4492 63.3487 23.141 62.1653 23.8436C61.5557 24.2057 61.5031 24.389 61.8333 25.0168C62.9843 27.2039 64.1399 29.3884 65.298 31.5713C65.6305 32.1981 65.8078 32.2495 66.4143 31.8942C68.771 30.5137 71.1254 29.1285 73.48 27.7441C73.8106 27.5498 73.9739 27.4535 74.0855 27.5007C74.1367 27.6287 74.1853 27.7544 74.2315 27.8769C74.6071 28.873 74.8209 29.6686 75.0466 30.8987C75.2723 32.1289 75.5098 33.7941 75.686 35.4389C75.7721 36.2409 75.8434 37.0383 75.8916 37.8876C75.7424 37.8951 75.692 37.7685 75.632 37.6383C74.5662 35.3214 71.5884 35.5053 70.6661 37.4913C70.5634 37.7123 70.4147 37.6974 70.2205 37.7012C69.2637 37.7203 68.8253 38.0565 68.537 39.0336C68.4625 39.2861 68.3347 39.3528 68.1347 39.4315C67.5839 39.6482 67.2791 40.0982 67.2781 40.7062C67.2773 41.2254 67.6452 42.0194 68.2139 41.9957L68.21 41.9978ZM51.7323 28.5057C51.5516 28.759 51.5063 29.1468 51.4861 33.285C51.4658 37.4232 51.4706 45.3119 51.4834 49.3376C51.4962 53.3634 51.5171 53.5261 51.8644 53.6261C52.2117 53.7262 52.8856 53.7634 54.0243 53.7395C55.1631 53.7156 56.7668 53.6304 57.7123 53.5226C58.6576 53.415 58.9447 53.2847 59.3383 52.9307C59.7317 52.5768 60.2314 51.999 60.6221 51.1066C61.0126 50.2142 61.2941 49.007 61.4962 47.315C61.6985 45.6232 61.8212 43.4465 61.8185 41.1116C61.8158 38.7767 61.6874 36.2834 61.4513 34.4518C61.2152 32.62 60.8714 31.45 60.4497 30.6237C60.0277 29.7975 59.5278 29.3148 58.7032 28.9478C57.8783 28.5807 56.7286 28.329 55.6482 28.1927C54.5676 28.0564 53.5563 28.0355 52.8927 28.0844C52.229 28.1334 51.9131 28.2523 51.7323 28.5057ZM69.6226 21.3764C69.8281 21.5387 70.0249 21.7108 70.228 21.8978C70.2827 22.0335 70.3322 22.1738 70.4015 22.2962C70.4579 22.3958 69.7292 22.9466 69.4607 22.9737C69.1456 22.7891 69.0775 22.3662 68.8853 22.0444C68.8299 21.9517 69.3363 21.5008 69.6226 21.3764ZM71.0893 22.7435C71.3836 23.0523 71.6802 23.3869 71.9652 23.7434C71.9478 23.7454 71.9294 23.7454 71.9144 23.7529C71.0703 24.1761 71.0704 24.1761 70.5592 23.3652C70.4308 22.8682 70.863 22.8964 71.0893 22.7435ZM72.2511 24.1142C72.3762 24.2825 72.4978 24.4551 72.6151 24.6319C72.736 24.8141 72.8521 25.0005 72.9632 25.1894C72.7917 25.3676 72.5995 25.5525 72.4076 25.4026C72.1597 25.2091 72.0139 24.8266 71.9038 24.4969C71.8334 24.2859 72.1591 24.2801 72.246 24.1191L72.2511 24.1142ZM73.2015 25.6111C73.4194 26.0125 73.6161 26.4188 73.7916 26.8142C73.7142 26.9184 73.5231 26.959 73.4187 27.0229C72.5633 27.547 71.6965 28.0506 70.8309 28.5557C70.6689 28.6504 70.5078 28.8595 70.3061 28.6166C69.8721 27.6237 69.8748 27.6285 70.7941 27.0803C71.5659 26.6202 72.3307 26.1471 73.0985 25.6799C73.14 25.6588 73.1739 25.6357 73.2015 25.6111ZM69.9446 28.8916C69.6087 29.4466 69.0536 29.6728 68.7224 29.3896C68.6523 29.2383 68.6023 29.0712 68.5083 28.9388C68.2908 28.6316 68.402 28.4833 68.6857 28.3156C69.3745 27.909 69.3658 27.8946 69.7739 28.6328C69.8239 28.7233 69.8874 28.8056 69.9446 28.8916ZM68.4598 29.8953C68.0989 30.1213 67.738 30.3474 67.3772 30.5734C67.0507 30.343 66.9931 29.9202 66.9104 29.5975C66.796 29.1517 67.3547 29.2006 67.5818 28.9823C67.7451 28.8251 67.8949 28.8458 68.0091 29.0771C68.1471 29.3566 68.3085 29.6232 68.4598 29.8953ZM66.9048 30.6893C66.7509 31.1222 66.3088 31.1457 66.0154 31.3806C65.9791 31.4097 65.8646 31.4069 65.8563 31.3867C65.6946 30.9946 65.1933 30.729 65.4431 30.1818C66.3071 29.7703 66.3071 29.7703 66.9048 30.6893ZM65.3022 29.7718C64.6186 29.7343 64.6458 29.1297 64.5046 28.6595C65.1398 28.2982 65.7893 27.9616 66.4058 27.5675C66.8365 27.2922 66.8908 27.6667 66.9912 27.9025C67.0992 28.1555 67.5313 28.4229 67.0164 28.7225C66.4382 29.0591 65.8731 29.4209 65.3022 29.7718ZM64.3314 28.2411C63.9355 27.9271 63.5664 27.5996 63.7681 26.9869C64.139 26.7786 64.5157 26.5812 64.8788 26.3584C65.1936 26.1653 65.4572 25.9864 65.651 26.5261C65.7858 26.9015 66.1657 27.227 65.5181 27.505C65.0976 27.6856 64.7254 27.9914 64.3314 28.2411ZM63.4808 26.577C62.9936 26.418 62.9131 25.9263 62.7849 25.524C62.7159 25.3072 63.6873 24.9459 63.9465 25.0893C64.3143 25.9677 64.3143 25.9677 63.4808 26.577ZM64.2383 24.5773C64.644 24.4483 64.9115 23.9686 65.406 24.0649C65.4736 24.2177 65.5186 24.3885 65.6127 24.52C65.908 24.9319 65.8683 25.1856 65.3891 25.4207C64.7688 25.7251 64.7857 25.7636 64.2383 24.5773ZM65.8004 23.8824C66.0778 23.3722 66.6133 23.1081 66.9866 23.2976C67.0366 23.4122 67.0687 23.5413 67.1395 23.6388C67.4341 24.044 67.3691 24.2699 66.9232 24.5369C66.4524 24.8186 66.2156 24.7657 66.034 24.2458C65.9875 24.1125 65.8798 24.003 65.8004 23.8824ZM67.3433 22.9865C67.4503 22.4518 67.9445 22.4199 68.2907 22.2517C68.5214 22.1397 68.8948 23.2064 68.7125 23.4973C67.8842 23.8998 67.8843 23.8998 67.3433 22.9865ZM69.2123 23.7852C69.5469 23.8021 69.7438 23.2003 70.1528 23.5525C70.211 23.6864 70.2481 23.8372 70.331 23.951C70.6132 24.3381 70.5965 24.6325 70.1197 24.7924C69.906 24.8641 69.6987 25.223 69.495 24.9928C69.2616 24.7289 69.0483 24.3937 69.0129 24.0027C69.0071 23.9375 69.1424 23.858 69.2123 23.7852ZM66.8688 25.2382C67.2424 25.4088 67.4592 25.8534 67.4529 26.1828C67.4449 26.6092 66.8715 26.5945 66.5885 26.8825C66.2236 26.6552 66.1532 26.2333 65.9593 25.9094C65.8948 25.8015 66.6997 25.161 66.8688 25.2382ZM67.4832 24.9946C67.6346 24.5838 68.0933 24.5713 68.3955 24.2896C68.7289 24.5351 68.9594 24.9374 68.974 25.2658C68.9935 25.7039 68.4442 25.7215 68.1473 25.9268C68.0324 26.0063 67.4112 25.1897 67.4832 24.9946ZM68.2392 26.5396C68.6304 26.7016 68.635 27.1785 68.8975 27.5111C68.6536 27.8509 68.2777 28.1064 67.9658 28.1052C67.563 28.1031 67.529 27.5344 67.3301 27.2166C67.2675 27.1165 68.0756 26.4717 68.2392 26.5396ZM68.8405 26.2757C69.0393 25.9032 69.4571 25.6519 69.7705 25.6694C70.1585 25.6908 70.1612 26.2952 70.4351 26.6171C70.1685 26.9416 69.8119 27.0841 69.482 27.2592C69.3783 27.3141 68.7651 26.4166 68.8405 26.2757ZM71.0065 26.3227C70.605 26.3142 70.5799 25.734 70.3779 25.4122C70.3193 25.3187 71.1383 24.7026 71.3046 24.7122C71.4034 24.7178 71.9135 25.5441 71.9146 25.7682C71.6957 26.0494 71.3225 26.3292 71.0065 26.3227ZM63.507 55.6233C63.1878 55.384 63.0669 54.9957 62.9023 54.6585C62.7752 54.3984 63.0572 54.3586 63.1987 54.2871C63.3298 54.2208 63.8766 54.9587 63.8915 55.2096C63.9068 55.468 63.6682 55.4665 63.507 55.6233ZM62.2563 56.2229C62.3436 56.4256 62.0435 56.4701 61.9164 56.5722C61.7878 56.5808 61.2416 55.7764 61.2452 55.5873C61.2501 55.34 61.5129 55.2158 61.6042 55.2497C62.0142 55.402 62.1009 55.8621 62.2563 56.2229ZM39.5404 23.7654C39.6494 23.8676 39.516 23.9361 39.5085 24.0221C39.174 24.2896 38.8893 24.5945 38.7981 25.0507C38.7946 25.0687 38.7243 25.072 38.6852 25.0822L38.1927 25.0662L38.1942 23.7925L39.5404 23.7654ZM38.1923 25.9621L38.1926 25.331L38.5661 25.3136C38.7307 25.5013 39.3297 25.6083 38.6722 25.9487L38.1923 25.9621ZM42.2245 24.2892L42.219 24.2848L42.2221 24.2872L42.2245 24.2892ZM44.7784 58.1463C43.8617 57.4048 42.943 56.6658 42.0235 55.9282C41.9291 55.8525 41.8244 55.7912 41.7596 55.7468C41.5929 55.7505 41.5118 55.8225 41.4888 55.9303C41.4446 56.1377 41.6034 56.2342 41.7291 56.3358C42.6463 57.0766 43.5654 57.8149 44.4855 58.5518C44.6424 58.6777 44.8281 58.89 45.0032 58.6482C45.1786 58.4061 44.9343 58.2723 44.7784 58.1463ZM42.9178 58.0326C42.3769 57.5925 41.8325 57.1572 41.2868 56.7239C41.2094 56.6624 41.1171 56.6215 41.0133 56.5603C40.9424 56.6172 40.8593 56.6521 40.8265 56.7161C40.7428 56.8784 40.8333 56.9985 40.952 57.0946C41.51 57.5458 42.069 57.9958 42.6286 58.4452C42.7668 58.5562 42.9237 58.6295 43.0516 58.4532C43.1864 58.2674 43.0462 58.1369 42.9178 58.0326ZM42.9898 61.6743C42.8513 61.3772 42.5445 61.2089 42.2539 61.0375C42.1489 60.9755 41.2343 62.1045 41.282 62.2657C41.3861 62.6169 41.7126 62.7496 41.9791 62.9252C42.0894 62.9979 42.9669 61.9477 42.9898 61.6743ZM41.0647 61.6641C41.5497 60.9547 42.0673 60.2704 42.5691 59.5737C42.6288 59.4907 42.6734 59.3957 42.7228 59.3104C42.6145 58.9778 42.3363 58.861 42.1145 58.6914C41.9082 58.5336 41.7811 58.7058 41.6678 58.8625C41.1644 59.5579 40.6765 60.2662 40.1554 60.9464C39.8494 61.3458 40.1305 61.4953 40.3679 61.7022C40.6196 61.9217 40.8221 62.0187 41.0647 61.6641ZM39.7149 60.685C39.9673 60.299 40.2616 59.9437 40.5165 59.5594C40.6202 59.403 40.8893 59.2524 40.7048 59.0234C40.5261 58.8016 40.2757 58.6442 40.0876 58.4844C39.921 58.4684 39.8478 58.5372 39.7853 58.6233C39.4402 59.0973 39.0773 59.5582 38.7571 60.0501C38.4633 60.5013 38.9624 60.5497 39.1336 60.7536C39.3406 61.0001 39.5303 60.9671 39.7149 60.685ZM44.1899 63.6029C43.9492 63.5902 43.7118 63.5772 43.477 63.564C43.467 63.4095 43.6026 63.3227 43.6791 63.2158C44.4616 62.1261 45.2437 61.0361 46.038 59.9561C46.2781 59.6292 46.3953 59.3915 45.9964 59.0603C45.5783 58.7132 45.3762 58.8864 45.122 59.2451C44.2977 60.4082 43.4588 61.5603 42.6181 62.7106C42.4403 62.9539 42.2648 63.1819 42.4963 63.5062C42.1889 63.4873 41.8858 63.4682 41.5858 63.4487C40.855 62.8655 40.1119 62.2984 39.4072 61.6819C39.0216 61.3446 38.5228 61.1656 38.1898 60.7606C38.1895 60.5808 38.1899 60.3871 38.1906 60.1773L38.1917 59.7967C38.2858 59.585 38.42 59.3882 38.5595 59.1937C39.5991 57.7755 40.646 56.363 41.6722 54.9341C41.8856 54.6368 42.0174 54.5682 42.3298 54.8261C43.9083 56.1286 45.5016 57.4118 47.1085 58.6753C47.4334 58.9308 47.4427 59.086 47.2008 59.4146C46.1821 60.7983 45.1909 62.2046 44.1899 63.6029ZM41.0042 63.4104C40.0751 63.348 39.1724 63.2833 38.2697 63.2185C38.2336 62.9744 38.1974 62.7304 38.1909 61.1907C38.2383 61.2662 38.2846 61.3418 38.3255 61.4191C39.0698 62.0966 39.8501 62.7242 40.6667 63.3014C40.7832 63.3204 40.8946 63.3606 41.0042 63.4104Z"
    fill="black"
  />
  <path
    fill-rule="evenodd"
    clip-rule="evenodd"
    d="M68.21 41.9978C68.4495 42.1616 68.7197 42.1125 68.9798 42.1128C71.1901 42.1161 73.4008 42.1238 75.611 42.1064C75.7371 42.1056 75.8403 42.1115 75.9224 42.1356C75.8644 43.9178 75.7348 45.8507 75.5913 47.3591C75.4111 49.2537 75.2094 50.4784 74.8382 51.8861C74.4669 53.2937 73.9263 54.8842 73.4491 56.0162C72.972 57.1482 72.5586 57.8216 72.0361 58.4919C71.5138 59.1622 70.8826 59.8294 70.2569 60.3727C69.6313 60.9162 69.0111 61.3357 67.8292 61.8284C67.5646 61.9386 67.2718 62.0526 66.9525 62.1672C66.8459 62.0772 66.7633 61.9009 66.6619 61.622C66.6476 61.5826 66.6065 61.5151 66.6099 61.5128C67.1799 61.1232 66.6326 60.484 66.9198 60.0137C67.2785 59.4258 67.2566 58.7924 66.935 58.1849C66.4805 57.3264 66.0137 56.4752 65.549 55.6226C65.4636 55.4659 65.3945 55.2077 65.1572 55.3899C64.8084 55.6577 64.7052 55.3928 64.5804 55.1389C64.571 55.1201 64.5577 55.1035 64.5471 55.0853C64.2085 54.5105 64.0472 53.5674 63.5232 53.4428C63.0663 53.3343 62.4412 53.9809 61.8997 54.3108C61.393 54.6196 60.6274 54.8477 60.4733 55.3C60.3135 55.7689 60.9598 56.3475 61.2159 56.8985C61.3564 57.2007 61.7612 57.519 61.1739 57.8129C60.998 57.9009 61.1574 58.0771 61.2225 58.1977C61.6939 59.0707 62.1597 59.9473 62.6469 60.8106C62.919 61.2929 63.331 61.5904 63.866 61.6797C64.2311 61.7405 64.6481 61.6649 64.8379 62.1541C64.8848 62.2752 65.0479 62.2844 65.1631 62.2083C65.5832 61.931 65.6637 62.3421 65.7299 62.5662C64.859 62.8236 63.8586 63.0658 62.7492 63.2559C60.595 63.6249 58.0302 63.7973 55.0719 63.8437C52.1135 63.8902 48.7617 63.8105 45.8958 63.6854C45.5308 63.6694 45.1738 63.6527 44.8234 63.6354C44.813 63.5876 44.8114 63.5252 44.8211 63.444C45.847 62.0443 46.8654 60.6381 47.9037 59.2485C48.174 58.8868 47.9668 58.7339 47.7258 58.541C45.9208 57.0958 44.1102 55.6583 42.3233 54.1885C41.9467 53.8786 41.7759 53.9558 41.5143 54.3241C40.5568 55.6718 39.5677 56.9943 38.5905 58.3264C38.564 58.365 38.5375 58.4033 38.5109 58.4418C38.4545 58.5238 38.398 58.6057 38.3414 58.6876C38.3434 58.7296 38.3411 58.7712 38.3347 58.8127C38.2943 58.8563 38.2541 58.8998 38.2138 58.9434C38.2081 58.9537 38.2023 58.9631 38.1961 58.9717C38.212 56.3566 38.2536 52.3194 38.2592 47.8263C38.2657 42.5698 38.2227 36.6897 38.2045 32.1486C38.1952 29.8299 38.1923 27.8603 38.1922 26.226L38.5692 26.2042C39.0234 26.3828 39.1352 26.5801 38.6059 26.8279L38.6047 26.8287L38.6035 26.8294L38.6023 26.8301L38.6012 26.8309L38.5998 26.8318L38.5985 26.8328L38.5974 26.8336L38.5966 26.8344L38.5952 26.8361L38.594 26.8373L38.5928 26.8384L38.5921 26.8392L38.5905 26.8408L38.5892 26.8423L38.5884 26.8438L38.5876 26.8446L38.5864 26.8466L38.585 26.8487L38.5843 26.8505L38.5831 26.8521L38.5823 26.8542L38.5815 26.8554L38.5805 26.8579L38.5796 26.86L38.5787 26.862L38.578 26.864L38.5776 26.8653L38.5757 26.8702L38.5747 26.8728L38.5739 26.8749L38.5735 26.8761L38.5728 26.879L38.5718 26.8818L38.571 26.884L38.5703 26.8864L38.57 26.8877L38.5696 26.8889L38.5692 26.891L38.5682 26.8938L38.5673 26.8964L38.5665 26.8993L38.5661 26.9005L38.5658 26.9018L38.5654 26.9038L38.5646 26.9067L38.5638 26.9092L38.5633 26.9121L38.5629 26.9133L38.5626 26.9145L38.5622 26.9166L38.5616 26.9195L38.5607 26.9223L38.5601 26.9248L38.5597 26.926L38.5594 26.9273L38.559 26.9289L38.5581 26.9322L38.5572 26.9348L38.5567 26.9373L38.5563 26.9385L38.556 26.9402L38.5556 26.9418L38.5551 26.9451L38.5542 26.9478L38.5534 26.9502L38.5528 26.9527L38.5524 26.9543L38.5514 26.9576L38.5506 26.9605L38.5501 26.9629L38.5494 26.9653L38.549 26.967L38.5487 26.9682L38.5483 26.9703L38.5474 26.9731L38.5466 26.9754L38.5461 26.9779L38.5458 26.9791L38.5454 26.9803L38.545 26.9824L38.5441 26.9853L38.5433 26.9874L38.5427 26.9895L38.5423 26.9907L38.542 26.992L38.5412 26.9936L38.5403 26.9961C38.8498 27.149 38.869 27.6721 39.1592 27.7108L39.1737 27.7128L39.1878 27.7149L39.2013 27.7172L39.2029 27.7175L39.2148 27.72L39.2168 27.7204L39.2279 27.7229L39.2303 27.7233L39.2408 27.7257L39.2435 27.7266L39.2533 27.729L39.2564 27.7299L39.2653 27.7323L39.2688 27.7336L39.2772 27.736L39.2811 27.7373L39.2888 27.7397L39.2928 27.741L39.2999 27.7434L39.3042 27.7451L39.3108 27.7475L39.3154 27.7492L39.3214 27.7517L39.3262 27.7537L39.3317 27.7562L39.3367 27.7587L39.3417 27.7611L39.3469 27.7636L39.3514 27.7656L39.3609 27.7707L39.3665 27.7735L39.3701 27.7756L39.3759 27.7789L39.379 27.7809L39.385 27.7846L39.3877 27.7867L39.3938 27.7904L39.3961 27.792L39.4024 27.7962L39.4044 27.7979L39.4124 27.8038L39.4189 27.8086L39.4204 27.8098L39.428 27.8159L39.4347 27.8215L39.4355 27.8223L39.4422 27.8283L39.4494 27.8349L39.4564 27.8418L39.4632 27.8486L39.4697 27.8556L39.4759 27.8626L39.4767 27.8634L39.4821 27.8698L39.4829 27.8706L39.4881 27.8769L39.4893 27.8782L39.4942 27.8842L39.4953 27.8859L39.4998 27.8917L39.5014 27.8938L39.5056 27.8994L39.5072 27.9014L39.5112 27.907L39.5131 27.9095L39.5166 27.9147L39.5186 27.9176L39.5221 27.9226L39.524 27.9259L39.5271 27.9307L39.5295 27.934L39.5322 27.9386L39.5345 27.9423L39.5373 27.9468L39.54 27.9509L39.5423 27.9551L39.5451 27.9595L39.5474 27.9632L39.5501 27.9681L39.5521 27.9718L39.5548 27.9769L39.5568 27.9802L39.5599 27.9857L39.5614 27.989L39.5646 27.9948L39.5661 27.9977L39.5692 28.0039L39.5704 28.0068L39.5739 28.0132L39.5751 28.0152L39.5786 28.0222L39.5794 28.0243L39.5833 28.0316L39.5841 28.0333L39.588 28.041L39.5887 28.0422L39.5927 28.0502L39.5972 28.0594L39.6018 28.069L39.6065 28.0786L39.611 28.0879L39.6154 28.0972L39.62 28.1063L39.6204 28.1076L39.6245 28.1159L39.6253 28.1172L39.6293 28.1253L39.6301 28.127L39.634 28.1348L39.6347 28.136L39.6354 28.1372L39.6362 28.1385L39.6377 28.1409L39.6385 28.1422L39.6393 28.1434L39.6401 28.1446L39.6407 28.1458L39.6411 28.1471L39.6418 28.1483L39.6426 28.1495L39.6434 28.1508L39.6442 28.152L39.6457 28.1545C39.643 28.6539 39.6403 29.1533 39.6377 29.6526C39.2242 29.9461 38.7488 29.7106 38.3144 29.8253C38.3102 29.8609 38.3099 29.8967 38.3136 29.9324C38.766 29.9256 39.2229 30.0316 39.6695 29.8736C39.6868 29.8458 39.6973 29.8193 39.7009 29.7939C39.894 29.2564 39.7366 28.6942 39.7798 28.1463C39.9681 28.0788 39.8942 27.7144 40.1709 27.7543C40.3884 27.7857 40.3077 28.0223 40.3948 28.1452C40.3903 29.3828 40.3858 30.6204 40.3814 31.8578C40.0429 32.1122 39.6565 31.9312 39.2965 31.991C39.2063 31.9079 39.106 31.8196 38.9962 31.9336C38.9543 31.9768 38.9308 32.1012 38.9592 32.147C39.063 32.3145 39.1862 32.2471 39.2986 32.1407C39.6933 32.0738 40.1222 32.3055 40.4882 31.9887C40.4987 30.7097 40.5093 29.4305 40.5198 28.1513C40.7586 27.9023 40.9961 27.4135 41.2397 28.1472C41.2274 29.2108 41.2153 30.2744 41.2029 31.3379C41.088 31.4203 41.0464 31.5273 41.1411 31.647C41.1696 31.6831 41.2633 31.7066 41.298 31.6847C41.4207 31.6071 41.4122 31.4824 41.3642 31.3567C41.3661 30.2878 41.3677 29.2188 41.3695 28.1499C41.6088 27.6432 41.847 27.663 42.0843 28.1516C42.0807 29.1897 42.0888 30.228 42.0676 31.2655C42.0598 31.6368 42.1808 32.0283 41.9635 32.3798C41.518 32.3666 41.0725 32.348 40.6269 32.3432C40.506 32.342 40.3622 32.3787 40.4081 32.5584C40.4379 32.6754 40.568 32.7125 40.6584 32.656C41.1123 32.3724 41.6207 32.6267 42.0859 32.4809C42.2724 32.3801 42.227 32.1937 42.2268 32.0315C42.2253 30.7365 42.2195 29.4416 42.2151 28.1466C42.3653 28.0554 42.2536 27.7423 42.5216 27.7483C42.6845 27.752 42.7015 27.8801 42.7311 28.0014C42.8977 28.9822 42.7816 29.9703 42.7975 30.9547C42.6422 31.0759 42.6163 31.2262 42.7375 31.3816C42.7902 31.4495 42.8809 31.4431 42.9486 31.3757C43.0876 31.2368 42.9779 31.107 42.9329 30.9752C42.943 30.7224 42.9471 30.4689 42.9641 30.2165C43.0135 29.4844 42.847 28.7411 43.0671 28.0181C43.2296 27.607 43.3927 27.6605 43.556 28.0177C43.7941 28.884 43.6006 29.7709 43.6708 30.6445C43.6897 30.879 43.5577 31.1524 43.8013 31.3419C44.3618 31.3573 44.9221 31.3725 45.4824 31.3878C45.5524 31.4721 45.6327 31.5113 45.7198 31.4218C45.7816 31.3583 45.7801 31.2747 45.7285 31.2055C45.6525 31.1035 45.5694 31.1313 45.4908 31.2084C44.9697 31.2136 44.4487 31.2188 43.9277 31.224C43.7565 30.0714 43.7893 28.9191 43.9316 27.7669C44.1278 27.7188 44.288 27.736 44.3116 28.0004C44.4698 28.4345 44.3592 28.8893 44.4049 29.3311C44.443 29.6989 44.2608 30.0979 44.5366 30.4334C45.1395 30.4467 45.7424 30.4599 46.3453 30.4731C46.4194 30.5571 46.5057 30.6079 46.6008 30.5207C46.6639 30.4628 46.685 30.3759 46.6308 30.2957C46.533 30.1518 46.4296 30.2091 46.3284 30.2949C45.7783 30.299 45.2281 30.3031 44.6781 30.307C44.4831 29.5471 44.5264 28.7841 44.6516 28.02C44.6916 27.8342 44.7874 27.7118 44.9821 27.7479C45.4946 27.843 45.5318 27.5222 45.4949 27.1195C45.4834 26.9954 45.5013 26.8685 45.5057 26.7429C45.6377 26.7302 45.7723 26.7253 45.8668 26.6042C46.2666 26.6084 46.6665 26.6126 47.0663 26.6167C47.0663 27.2096 47.0663 27.8026 47.0663 28.3956C47.1404 28.3948 47.2145 28.3939 47.2886 28.3935C47.2484 27.7987 47.3433 27.2069 47.2221 26.6105C47.2017 26.3714 47.0294 26.3815 46.8719 26.3794C46.5357 26.3748 46.1997 26.3769 45.8635 26.3761C45.8248 26.3656 45.786 26.3551 45.7473 26.3446C45.0617 25.9849 45.7546 25.9011 45.8631 25.7004C46.3535 25.6954 46.8438 25.6903 47.334 25.6852C47.4549 25.7261 47.5626 25.8867 47.7008 25.7565C47.7444 25.7153 47.7703 25.5972 47.7462 25.5428C47.6833 25.4004 47.5628 25.4238 47.4479 25.4815C46.8791 25.4782 46.3103 25.4752 45.7413 25.4721C45.3669 25.4072 45.4853 25.0891 45.5021 24.874C45.5363 24.4377 45.4007 24.247 44.9734 24.311C44.7679 24.3417 44.564 24.3265 44.5422 24.0267C44.5482 23.6226 44.586 23.2154 44.5526 22.815C44.5075 22.2748 44.6546 22.0188 45.215 22.0868C45.5933 22.1326 45.981 22.092 46.3646 22.0901C46.4696 22.1551 46.5805 22.2184 46.67 22.0777C46.6958 22.0374 46.6974 21.9476 46.6716 21.9092C46.5867 21.7825 46.4697 21.8217 46.3579 21.8726C45.7511 21.8723 45.1444 21.8717 44.5375 21.8713C44.2836 22.0285 44.4192 22.2854 44.4099 22.4935C44.3827 23.1015 44.4914 23.728 44.1463 24.2831C44.0322 24.286 43.9181 24.2892 43.804 24.2921C43.5953 23.1091 43.7533 21.9135 43.6968 20.7252C43.9405 20.5729 44.2105 20.6883 44.4623 20.6407C44.6932 20.597 44.998 20.8131 45.143 20.4421C45.1454 20.1885 45.1477 19.9348 45.1499 19.681C45.2443 19.5649 45.3302 19.4409 45.1821 19.3103C45.1197 19.2554 45.03 19.2641 44.9713 19.3374C44.8686 19.4656 44.962 19.5653 45.0235 19.6679C45.0145 19.9235 45.0057 20.1792 44.9968 20.4347C44.5193 20.518 44.0157 20.2941 43.5546 20.571C43.5495 20.8457 43.5519 21.1208 43.5378 21.395C43.4928 22.2768 43.6435 23.166 43.4468 24.0417C43.2756 24.4373 43.1048 24.4385 42.9343 24.0409C42.8311 23.8451 42.8451 23.6314 42.8454 23.4187C42.847 22.1185 42.8489 20.8182 42.845 19.5179C42.8447 19.3877 42.9123 19.1565 42.6994 19.1799C42.4422 19.2083 42.6464 19.3952 42.6482 19.5164C42.6709 21.1093 42.784 22.7038 42.5749 24.2927C42.4594 24.2906 42.3441 24.289 42.2285 24.2867C41.9935 23.3988 42.1855 22.4845 42.0786 21.5885C42.1163 21.4682 42.1397 21.3441 42.0116 21.2723C41.9778 21.2534 41.8873 21.2822 41.8643 21.3184C41.7817 21.4484 41.8494 21.5404 41.9604 21.6089C41.9019 22.4182 42.0855 23.2392 41.8545 24.0403C41.8025 24.148 41.7975 24.2933 41.6383 24.3105C41.4449 24.3313 41.4165 24.1703 41.3571 24.0406C41.1296 23.5461 41.3266 23.012 41.2286 22.5055C40.9049 22.2248 40.5145 22.446 40.1663 22.3488C40.1576 21.8415 40.1488 21.3342 40.14 20.8268C40.1953 20.7022 40.2024 20.579 40.0827 20.498C40.0488 20.4752 39.9541 20.4955 39.9254 20.5308C39.8314 20.646 39.868 20.7583 39.9702 20.8523C39.9908 21.3979 40.0117 21.9437 40.0324 22.4893C40.3633 22.737 40.7538 22.5285 41.1018 22.6455C41.1146 23.1977 41.1385 23.7507 40.9887 24.2906C40.8734 24.2903 40.7581 24.2901 40.6429 24.2901C40.5966 23.9087 40.5503 23.5274 40.5039 23.1461C40.1124 22.8776 39.6875 23.0405 39.2751 23.0404C39.1225 22.996 38.9654 22.9524 38.8424 23.099C38.8208 23.1248 38.8416 23.2222 38.8723 23.2592C39.0083 23.4222 39.1466 23.3693 39.278 23.2433C39.6053 23.2579 39.9328 23.2723 40.2601 23.2867C40.2621 23.4916 40.2637 23.6967 40.2656 23.9017C40.2337 23.9492 40.2018 23.9966 40.1699 24.0442C40.1427 24.1983 40.1415 24.3862 39.9063 24.2699C39.9165 24.0582 39.9145 23.8488 39.8001 23.6615C39.2888 23.3664 38.7303 23.6104 38.2023 23.5061L38.1984 23.5073L38.2004 22.4359C38.2043 20.4684 38.2051 19.7356 38.206 19.0026C38.6637 18.8829 39.1212 18.7633 41.6167 18.5809C44.1121 18.3984 48.6454 18.1533 52.4635 18.1298C56.2816 18.1062 59.3846 18.3044 61.8967 18.6983C64.4087 19.0923 66.3301 19.6822 67.6149 20.2239C67.7541 20.2826 67.8855 20.3407 68.0107 20.3985C67.2063 20.8747 66.4657 21.3141 65.7239 21.7509C64.5379 22.4492 63.3487 23.141 62.1653 23.8436C61.5557 24.2057 61.5031 24.389 61.8333 25.0168C62.9843 27.2039 64.1399 29.3884 65.298 31.5713C65.6305 32.1981 65.8078 32.2495 66.4143 31.8942C68.771 30.5137 71.1254 29.1285 73.48 27.7441C73.8106 27.5498 73.9739 27.4535 74.0855 27.5007C74.1367 27.6287 74.1853 27.7544 74.2315 27.8769C74.6071 28.873 74.8209 29.6686 75.0466 30.8987C75.2723 32.1289 75.5098 33.7941 75.686 35.4389C75.7721 36.2409 75.8434 37.0383 75.8916 37.8876C75.7424 37.8951 75.692 37.7685 75.632 37.6383C74.5662 35.3214 71.5884 35.5053 70.6661 37.4913C70.5634 37.7123 70.4147 37.6974 70.2205 37.7012C69.2637 37.7203 68.8253 38.0565 68.537 39.0336C68.4625 39.2861 68.3347 39.3528 68.1347 39.4315C67.5839 39.6482 67.2791 40.0982 67.2781 40.7062C67.2773 41.2254 67.6452 42.0194 68.2139 41.9957L68.21 41.9978ZM51.7323 28.5057C51.5516 28.759 51.5063 29.1468 51.4861 33.285C51.4658 37.4232 51.4706 45.3119 51.4834 49.3376C51.4962 53.3634 51.5171 53.5261 51.8644 53.6261C52.2117 53.7262 52.8856 53.7634 54.0243 53.7395C55.1631 53.7156 56.7668 53.6304 57.7123 53.5226C58.6576 53.415 58.9447 53.2847 59.3383 52.9307C59.7317 52.5768 60.2314 51.999 60.6221 51.1066C61.0126 50.2142 61.2941 49.007 61.4962 47.315C61.6985 45.6232 61.8212 43.4465 61.8185 41.1116C61.8158 38.7767 61.6874 36.2834 61.4513 34.4518C61.2152 32.62 60.8714 31.45 60.4497 30.6237C60.0277 29.7975 59.5278 29.3148 58.7032 28.9478C57.8783 28.5807 56.7286 28.329 55.6482 28.1927C54.5676 28.0564 53.5563 28.0355 52.8927 28.0844C52.229 28.1334 51.9131 28.2523 51.7323 28.5057ZM69.6226 21.3764C69.8281 21.5387 70.0249 21.7108 70.228 21.8978C70.2827 22.0335 70.3322 22.1738 70.4015 22.2962C70.4579 22.3958 69.7292 22.9466 69.4607 22.9737C69.1456 22.7891 69.0775 22.3662 68.8853 22.0444C68.8299 21.9517 69.3363 21.5008 69.6226 21.3764ZM71.0893 22.7435C71.3836 23.0523 71.6802 23.3869 71.9652 23.7434C71.9478 23.7454 71.9294 23.7454 71.9144 23.7529C71.0703 24.1761 71.0704 24.1761 70.5592 23.3652C70.4308 22.8682 70.863 22.8964 71.0893 22.7435ZM72.2511 24.1142C72.3762 24.2825 72.4978 24.4551 72.6151 24.6319C72.736 24.8141 72.8521 25.0005 72.9632 25.1894C72.7917 25.3676 72.5995 25.5525 72.4076 25.4026C72.1597 25.2091 72.0139 24.8266 71.9038 24.4969C71.8334 24.2859 72.1591 24.2801 72.246 24.1191L72.2511 24.1142ZM73.2015 25.6111C73.4194 26.0125 73.6161 26.4188 73.7916 26.8142C73.7142 26.9184 73.5231 26.959 73.4187 27.0229C72.5633 27.547 71.6965 28.0506 70.8309 28.5557C70.6689 28.6504 70.5078 28.8595 70.3061 28.6166C69.8721 27.6237 69.8748 27.6285 70.7941 27.0803C71.5659 26.6202 72.3307 26.1471 73.0985 25.6799C73.14 25.6588 73.1739 25.6357 73.2015 25.6111ZM69.9446 28.8916C69.6087 29.4466 69.0536 29.6728 68.7224 29.3896C68.6523 29.2383 68.6023 29.0712 68.5083 28.9388C68.2908 28.6316 68.402 28.4833 68.6857 28.3156C69.3745 27.909 69.3658 27.8946 69.7739 28.6328C69.8239 28.7233 69.8874 28.8056 69.9446 28.8916ZM68.4598 29.8953C68.0989 30.1213 67.738 30.3474 67.3772 30.5734C67.0507 30.343 66.9931 29.9202 66.9104 29.5975C66.796 29.1517 67.3547 29.2006 67.5818 28.9823C67.7451 28.8251 67.8949 28.8458 68.0091 29.0771C68.1471 29.3566 68.3085 29.6232 68.4598 29.8953ZM66.9048 30.6893C66.7509 31.1222 66.3088 31.1457 66.0154 31.3806C65.9791 31.4097 65.8646 31.4069 65.8563 31.3867C65.6946 30.9946 65.1933 30.729 65.4431 30.1818C66.3071 29.7703 66.3071 29.7703 66.9048 30.6893ZM65.3022 29.7718C64.6186 29.7343 64.6458 29.1297 64.5046 28.6595C65.1398 28.2982 65.7893 27.9616 66.4058 27.5675C66.8365 27.2922 66.8908 27.6667 66.9912 27.9025C67.0992 28.1555 67.5313 28.4229 67.0164 28.7225C66.4382 29.0591 65.8731 29.4209 65.3022 29.7718ZM64.3314 28.2411C63.9355 27.9271 63.5664 27.5996 63.7681 26.9869C64.139 26.7786 64.5157 26.5812 64.8788 26.3584C65.1936 26.1653 65.4572 25.9864 65.651 26.5261C65.7858 26.9015 66.1657 27.227 65.5181 27.505C65.0976 27.6856 64.7254 27.9914 64.3314 28.2411ZM63.4808 26.577C62.9936 26.418 62.9131 25.9263 62.7849 25.524C62.7159 25.3072 63.6873 24.9459 63.9465 25.0893C64.3143 25.9677 64.3143 25.9677 63.4808 26.577ZM64.2383 24.5773C64.644 24.4483 64.9115 23.9686 65.406 24.0649C65.4736 24.2177 65.5186 24.3885 65.6127 24.52C65.908 24.9319 65.8683 25.1856 65.3891 25.4207C64.7688 25.7251 64.7857 25.7636 64.2383 24.5773ZM65.8004 23.8824C66.0778 23.3722 66.6133 23.1081 66.9866 23.2976C67.0366 23.4122 67.0687 23.5413 67.1395 23.6388C67.4341 24.044 67.3691 24.2699 66.9232 24.5369C66.4524 24.8186 66.2156 24.7657 66.034 24.2458C65.9875 24.1125 65.8798 24.003 65.8004 23.8824ZM67.3433 22.9865C67.4503 22.4518 67.9445 22.4199 68.2907 22.2517C68.5214 22.1397 68.8948 23.2064 68.7125 23.4973C67.8842 23.8998 67.8843 23.8998 67.3433 22.9865ZM69.2123 23.7852C69.5469 23.8021 69.7438 23.2003 70.1528 23.5525C70.211 23.6864 70.2481 23.8372 70.331 23.951C70.6132 24.3381 70.5965 24.6325 70.1197 24.7924C69.906 24.8641 69.6987 25.223 69.495 24.9928C69.2616 24.7289 69.0483 24.3937 69.0129 24.0027C69.0071 23.9375 69.1424 23.858 69.2123 23.7852ZM66.8688 25.2382C67.2424 25.4088 67.4592 25.8534 67.4529 26.1828C67.4449 26.6092 66.8715 26.5945 66.5885 26.8825C66.2236 26.6552 66.1532 26.2333 65.9593 25.9094C65.8948 25.8015 66.6997 25.161 66.8688 25.2382ZM67.4832 24.9946C67.6346 24.5838 68.0933 24.5713 68.3955 24.2896C68.7289 24.5351 68.9594 24.9374 68.974 25.2658C68.9935 25.7039 68.4442 25.7215 68.1473 25.9268C68.0324 26.0063 67.4112 25.1897 67.4832 24.9946ZM68.2392 26.5396C68.6304 26.7016 68.635 27.1785 68.8975 27.5111C68.6536 27.8509 68.2777 28.1064 67.9658 28.1052C67.563 28.1031 67.529 27.5344 67.3301 27.2166C67.2675 27.1165 68.0756 26.4717 68.2392 26.5396ZM68.8405 26.2757C69.0393 25.9032 69.4571 25.6519 69.7705 25.6694C70.1585 25.6908 70.1612 26.2952 70.4351 26.6171C70.1685 26.9416 69.8119 27.0841 69.482 27.2592C69.3783 27.3141 68.7651 26.4166 68.8405 26.2757ZM71.0065 26.3227C70.605 26.3142 70.5799 25.734 70.3779 25.4122C70.3193 25.3187 71.1383 24.7026 71.3046 24.7122C71.4034 24.7178 71.9135 25.5441 71.9146 25.7682C71.6957 26.0494 71.3225 26.3292 71.0065 26.3227ZM63.507 55.6233C63.1878 55.384 63.0669 54.9957 62.9023 54.6585C62.7752 54.3984 63.0572 54.3586 63.1987 54.2871C63.3298 54.2208 63.8766 54.9587 63.8915 55.2096C63.9068 55.468 63.6682 55.4665 63.507 55.6233ZM62.2563 56.2229C62.3436 56.4256 62.0435 56.4701 61.9164 56.5722C61.7878 56.5808 61.2416 55.7764 61.2452 55.5873C61.2501 55.34 61.5129 55.2158 61.6042 55.2497C62.0142 55.402 62.1009 55.8621 62.2563 56.2229ZM39.5404 23.7654C39.6494 23.8676 39.516 23.9361 39.5085 24.0221C39.174 24.2896 38.8893 24.5945 38.7981 25.0507C38.7946 25.0687 38.7243 25.072 38.6852 25.0822L38.1927 25.0662L38.1942 23.7925L39.5404 23.7654ZM38.1923 25.9621L38.1926 25.331L38.5661 25.3136C38.7307 25.5013 39.3297 25.6083 38.6722 25.9487L38.1923 25.9621ZM42.2245 24.2892L42.219 24.2848L42.2221 24.2872L42.2245 24.2892ZM44.7784 58.1463C43.8617 57.4048 42.943 56.6658 42.0235 55.9282C41.9291 55.8525 41.8244 55.7912 41.7596 55.7468C41.5929 55.7505 41.5118 55.8225 41.4888 55.9303C41.4446 56.1377 41.6034 56.2342 41.7291 56.3358C42.6463 57.0766 43.5654 57.8149 44.4855 58.5518C44.6424 58.6777 44.8281 58.89 45.0032 58.6482C45.1786 58.4061 44.9343 58.2723 44.7784 58.1463ZM42.9178 58.0326C42.3769 57.5925 41.8325 57.1572 41.2868 56.7239C41.2094 56.6624 41.1171 56.6215 41.0133 56.5603C40.9424 56.6172 40.8593 56.6521 40.8265 56.7161C40.7428 56.8784 40.8333 56.9985 40.952 57.0946C41.51 57.5458 42.069 57.9958 42.6286 58.4452C42.7668 58.5562 42.9237 58.6295 43.0516 58.4532C43.1864 58.2674 43.0462 58.1369 42.9178 58.0326ZM42.9898 61.6743C42.8513 61.3772 42.5445 61.2089 42.2539 61.0375C42.1489 60.9755 41.2343 62.1045 41.282 62.2657C41.3861 62.6169 41.7126 62.7496 41.9791 62.9252C42.0894 62.9979 42.9669 61.9477 42.9898 61.6743ZM41.0647 61.6641C41.5497 60.9547 42.0673 60.2704 42.5691 59.5737C42.6288 59.4907 42.6734 59.3957 42.7228 59.3104C42.6145 58.9778 42.3363 58.861 42.1145 58.6914C41.9082 58.5336 41.7811 58.7058 41.6678 58.8625C41.1644 59.5579 40.6765 60.2662 40.1554 60.9464C39.8494 61.3458 40.1305 61.4953 40.3679 61.7022C40.6196 61.9217 40.8221 62.0187 41.0647 61.6641ZM39.7149 60.685C39.9673 60.299 40.2616 59.9437 40.5165 59.5594C40.6202 59.403 40.8893 59.2524 40.7048 59.0234C40.5261 58.8016 40.2757 58.6442 40.0876 58.4844C39.921 58.4684 39.8478 58.5372 39.7853 58.6233C39.4402 59.0973 39.0773 59.5582 38.7571 60.0501C38.4633 60.5013 38.9624 60.5497 39.1336 60.7536C39.3406 61.0001 39.5303 60.9671 39.7149 60.685ZM44.1899 63.6029C43.9492 63.5902 43.7118 63.5772 43.477 63.564C43.467 63.4095 43.6026 63.3227 43.6791 63.2158C44.4616 62.1261 45.2437 61.0361 46.038 59.9561C46.2781 59.6292 46.3953 59.3915 45.9964 59.0603C45.5783 58.7132 45.3762 58.8864 45.122 59.2451C44.2977 60.4082 43.4588 61.5603 42.6181 62.7106C42.4403 62.9539 42.2648 63.1819 42.4963 63.5062C42.1889 63.4873 41.8858 63.4682 41.5858 63.4487C40.855 62.8655 40.1119 62.2984 39.4072 61.6819C39.0216 61.3446 38.5228 61.1656 38.1898 60.7606C38.1895 60.5808 38.1899 60.3871 38.1906 60.1773L38.1917 59.7967C38.2858 59.585 38.42 59.3882 38.5595 59.1937C39.5991 57.7755 40.646 56.363 41.6722 54.9341C41.8856 54.6368 42.0174 54.5682 42.3298 54.8261C43.9083 56.1286 45.5016 57.4118 47.1085 58.6753C47.4334 58.9308 47.4427 59.086 47.2008 59.4146C46.1821 60.7983 45.1909 62.2046 44.1899 63.6029ZM41.0042 63.4104C40.0751 63.348 39.1724 63.2833 38.2697 63.2185C38.2336 62.9744 38.1974 62.7304 38.1909 61.1907C38.2383 61.2662 38.2846 61.3418 38.3255 61.4191C39.0698 62.0966 39.8501 62.7242 40.6667 63.3014C40.7832 63.3204 40.8946 63.3606 41.0042 63.4104Z"
    fill="white"
  />
  <path
    d="M81.1786 18.824C85.468 18.7406 89.7575 18.6572 94.047 18.5737C94.0947 24.2122 94.1427 29.8506 94.1783 35.3229C94.0738 35.3645 93.9351 35.3826 93.754 35.3934C90.4345 35.5903 87.9026 37.2129 86.1846 40.2229C86.0689 40.4257 85.7648 40.7303 86.2348 40.8535C86.5759 40.9428 86.8915 41.6415 87.3119 40.8856C88.7702 38.2636 90.9941 36.9418 93.8404 36.7242C93.9638 36.7148 94.0851 36.7044 94.187 36.7213L94.1948 38.0322C94.1156 38.0645 94.0113 38.0852 93.8737 38.0915C91.5523 38.198 89.7309 39.3032 88.4795 41.3941C88.3394 41.6281 88.0705 41.9443 88.5421 42.0856C88.8833 42.1878 89.1994 42.8485 89.6273 42.1041C90.5654 40.473 91.9962 39.6301 93.7864 39.47C93.914 39.4586 94.0727 39.4202 94.2027 39.4391L94.2094 40.7751C94.1254 40.807 94.0134 40.8248 93.8642 40.824C92.5324 40.8169 91.5262 41.5497 90.7589 42.6712C90.5371 42.9954 90.5406 43.172 90.9325 43.3825C91.4222 43.6457 91.7264 43.7457 92.1022 43.1529C92.5258 42.485 93.2382 42.2211 94.0085 42.1864C94.0865 42.1831 94.1563 42.186 94.216 42.1989L94.2227 43.9275C94.1466 43.9562 94.0463 43.9707 93.9141 43.9677C93.4136 43.9566 93.0556 44.5028 93.0607 45.0376C93.0661 45.597 93.4571 46.106 93.9927 46.105C94.0913 46.1048 94.1688 46.113 94.2299 46.1313C94.2468 51.9832 94.2462 57.5982 94.2457 63.2131C89.9171 63.2152 85.5887 63.2174 81.2601 63.2195L81.2574 60.9569C81.3517 60.8914 81.4773 60.8577 81.6161 60.828C82.0376 60.7375 81.914 61.1281 81.9993 61.3206C82.0754 61.4925 82.1002 61.6892 82.1536 61.873C82.2574 62.2303 82.139 62.4041 81.7807 62.4001C81.6785 62.3989 81.5579 62.4286 81.5943 62.5756C81.6244 62.6972 81.6881 62.7811 81.8552 62.7317C83.0793 62.37 84.307 62.0226 85.5329 61.6683C85.6475 61.6354 85.7943 61.6002 85.753 61.4298C85.7133 61.2658 85.5706 61.2742 85.4544 61.3264C85.1285 61.4727 85.017 61.3054 84.9672 60.9953C84.9336 60.7851 84.8926 60.5692 84.811 60.3765C84.6532 60.004 84.8157 59.9038 85.1318 59.8179C86.3486 59.4873 87.5589 59.1309 88.7715 58.7831C89.4421 58.5907 89.532 58.4285 89.3527 57.7346C88.7455 55.3834 88.1378 53.0323 87.5299 50.6812C87.3046 49.81 87.2003 49.7493 86.3891 49.9804C84.7461 50.4482 83.102 50.9118 81.4582 51.377C81.397 51.4472 81.3234 51.4724 81.2453 51.4809C81.2385 46.4556 81.2316 41.6778 81.2238 37.4729C81.2207 35.7244 81.2173 34.075 81.2138 32.5013L82.0929 32.5033C83.136 32.3539 83.8796 31.7577 84.3751 30.7956C84.7907 29.9883 85.2022 29.1784 85.6154 28.3699C85.5145 28.0019 85.1635 27.9799 84.9158 27.825C84.4993 27.5644 84.0564 27.3513 83.6351 27.0987C83.2692 26.879 82.9423 26.6371 82.7196 27.2883C82.613 27.5997 82.3259 27.5377 82.0967 27.4083C81.8626 27.2762 81.7153 27.0955 81.8728 26.786C81.9657 26.6039 82.1122 26.4322 82.0552 26.1953C81.7694 26.0422 81.4824 25.8913 81.1975 25.7362L81.1964 25.3161C81.276 25.354 81.3518 25.4023 81.4298 25.4449C82.2524 25.8959 82.2524 25.8959 82.7587 25.1181C83.0707 24.947 83.2656 24.6816 83.4002 24.3365C83.5429 23.9704 83.7261 23.6201 83.9123 23.2754C84.4232 22.3301 84.4207 22.3182 83.3954 22.1986C82.9981 22.197 82.3337 22.1127 81.5255 22.3682C81.4155 22.4112 81.3086 22.4628 81.1888 22.5228L81.1786 18.824ZM81.2565 60.1849L81.2461 52.146C81.3151 52.0873 81.4097 52.0449 81.5348 52.0106C83.1414 51.5693 84.7448 51.1141 86.3409 50.6326C86.7552 50.5076 86.8979 50.6208 87.0036 51.0463C87.5418 53.2153 88.1018 55.3787 88.6732 57.5385C88.7719 57.9111 88.7828 58.0939 88.349 58.2133C86.1161 58.8282 83.8903 59.4732 81.6698 60.1367C81.4821 60.1927 81.3481 60.2148 81.2565 60.1849ZM82.6792 26.8546C82.8473 26.6004 82.9003 26.272 83.1389 26.0639C83.1381 26.0223 83.1448 25.9819 83.1554 25.9421C83.1982 25.7837 83.3074 25.6353 83.2945 25.4684C83.2904 25.4172 83.2749 25.3642 83.2423 25.3085C83.1303 25.3052 83.0181 25.3015 82.9061 25.2978C82.8851 25.3364 82.864 25.375 82.8432 25.4136C82.6827 25.7093 82.5221 26.0051 82.3615 26.3008C82.3342 26.3512 82.307 26.4016 82.2795 26.4519C82.2606 26.5106 82.2422 26.5695 82.2226 26.6279C82.1623 26.8093 81.951 27.0148 82.2112 27.1699C82.506 27.3458 82.5626 27.0312 82.6792 26.8546ZM84.4084 23.0703C84.0764 23.7594 83.7403 24.4464 83.4059 25.1342C83.4618 25.195 83.5025 25.2536 83.5304 25.3101C83.6587 25.5709 83.5149 25.7907 83.3356 26.0054C83.3173 26.0273 83.2985 26.0491 83.2796 26.0711C83.2378 26.2738 83.1811 26.4449 83.4424 26.5789C84.1623 26.9478 84.8664 27.3521 85.5698 27.7558C85.6083 27.7778 85.6442 27.7947 85.6785 27.8056C85.774 27.8358 85.8566 27.8186 85.9445 27.7331C86.0069 27.5775 86.0642 27.4196 86.1326 27.2669C86.8133 25.746 86.3738 23.9561 85.0991 22.9302C84.7717 22.6667 84.5841 22.7056 84.4084 23.0703Z"
    fill="black"
  />
  <path
    fill-rule="evenodd"
    clip-rule="evenodd"
    d="M81.1786 18.824C85.468 18.7406 89.7575 18.6572 94.047 18.5737C94.0947 24.2122 94.1427 29.8506 94.1783 35.3229C94.0738 35.3645 93.9351 35.3826 93.754 35.3934C90.4345 35.5903 87.9026 37.2129 86.1846 40.2229C86.0689 40.4257 85.7648 40.7303 86.2348 40.8535C86.5759 40.9428 86.8915 41.6415 87.3119 40.8856C88.7702 38.2636 90.9941 36.9418 93.8404 36.7242C93.9638 36.7148 94.0851 36.7044 94.187 36.7213L94.1948 38.0322C94.1156 38.0645 94.0113 38.0852 93.8737 38.0915C91.5523 38.198 89.7309 39.3032 88.4795 41.3941C88.3394 41.6281 88.0705 41.9443 88.5421 42.0856C88.8833 42.1878 89.1994 42.8485 89.6273 42.1041C90.5654 40.473 91.9962 39.6301 93.7864 39.47C93.914 39.4586 94.0727 39.4202 94.2027 39.4391L94.2094 40.7751C94.1254 40.807 94.0134 40.8248 93.8642 40.824C92.5324 40.8169 91.5262 41.5497 90.7589 42.6712C90.5371 42.9954 90.5406 43.172 90.9325 43.3825C91.4222 43.6457 91.7264 43.7457 92.1022 43.1529C92.5258 42.485 93.2382 42.2211 94.0085 42.1864C94.0865 42.1831 94.1563 42.186 94.216 42.1989L94.2227 43.9275C94.1466 43.9562 94.0463 43.9707 93.9141 43.9677C93.4136 43.9566 93.0556 44.5028 93.0607 45.0376C93.0661 45.597 93.4571 46.106 93.9927 46.105C94.0913 46.1048 94.1688 46.113 94.2299 46.1313C94.2468 51.9832 94.2462 57.5982 94.2457 63.2131C89.9171 63.2152 85.5887 63.2174 81.2601 63.2195L81.2574 60.9569C81.3517 60.8914 81.4773 60.8577 81.6161 60.828C82.0376 60.7375 81.914 61.1281 81.9993 61.3206C82.0754 61.4925 82.1002 61.6892 82.1536 61.873C82.2574 62.2303 82.139 62.4041 81.7807 62.4001C81.6785 62.3989 81.5579 62.4286 81.5943 62.5756C81.6244 62.6972 81.6881 62.7811 81.8552 62.7317C83.0793 62.37 84.307 62.0226 85.5329 61.6683C85.6475 61.6354 85.7943 61.6002 85.753 61.4298C85.7133 61.2658 85.5706 61.2742 85.4544 61.3264C85.1285 61.4727 85.017 61.3054 84.9672 60.9953C84.9336 60.7851 84.8926 60.5692 84.811 60.3765C84.6532 60.004 84.8157 59.9038 85.1318 59.8179C86.3486 59.4873 87.5589 59.1309 88.7715 58.7831C89.4421 58.5907 89.532 58.4285 89.3527 57.7346C88.7455 55.3834 88.1378 53.0323 87.5299 50.6812C87.3046 49.81 87.2003 49.7493 86.3891 49.9804C84.7461 50.4482 83.102 50.9118 81.4582 51.377C81.397 51.4472 81.3234 51.4724 81.2453 51.4809C81.2385 46.4556 81.2316 41.6778 81.2238 37.4729C81.2207 35.7244 81.2173 34.075 81.2138 32.5013L82.0929 32.5033C83.136 32.3539 83.8796 31.7577 84.3751 30.7956C84.7907 29.9883 85.2022 29.1784 85.6154 28.3699C85.5145 28.0019 85.1635 27.9799 84.9158 27.825C84.4993 27.5644 84.0564 27.3513 83.6351 27.0987C83.2692 26.879 82.9423 26.6371 82.7196 27.2883C82.613 27.5997 82.3259 27.5377 82.0967 27.4083C81.8626 27.2762 81.7153 27.0955 81.8728 26.786C81.9657 26.6039 82.1122 26.4322 82.0552 26.1953C81.7694 26.0422 81.4824 25.8913 81.1975 25.7362L81.1964 25.3161C81.276 25.354 81.3518 25.4023 81.4298 25.4449C82.2524 25.8959 82.2524 25.8959 82.7587 25.1181C83.0707 24.947 83.2656 24.6816 83.4002 24.3365C83.5429 23.9704 83.7261 23.6201 83.9123 23.2754C84.4232 22.3301 84.4207 22.3182 83.3954 22.1986C82.9981 22.197 82.3337 22.1127 81.5255 22.3682C81.4155 22.4112 81.3086 22.4628 81.1888 22.5228L81.1786 18.824ZM81.2565 60.1849L81.2461 52.146C81.3151 52.0873 81.4097 52.0449 81.5348 52.0106C83.1414 51.5693 84.7448 51.1141 86.3409 50.6326C86.7552 50.5076 86.8979 50.6208 87.0036 51.0463C87.5418 53.2153 88.1018 55.3787 88.6732 57.5385C88.7719 57.9111 88.7828 58.0939 88.349 58.2133C86.1161 58.8282 83.8903 59.4732 81.6698 60.1367C81.4821 60.1927 81.3481 60.2148 81.2565 60.1849ZM82.6792 26.8546C82.8473 26.6004 82.9003 26.272 83.1389 26.0639C83.1381 26.0223 83.1448 25.9819 83.1554 25.9421C83.1982 25.7837 83.3074 25.6353 83.2945 25.4684C83.2904 25.4172 83.2749 25.3642 83.2423 25.3085C83.1303 25.3052 83.0181 25.3015 82.9061 25.2978C82.8851 25.3364 82.864 25.375 82.8432 25.4136C82.6827 25.7093 82.5221 26.0051 82.3615 26.3008C82.3342 26.3512 82.307 26.4016 82.2795 26.4519C82.2606 26.5106 82.2422 26.5695 82.2226 26.6279C82.1623 26.8093 81.951 27.0148 82.2112 27.1699C82.506 27.3458 82.5626 27.0312 82.6792 26.8546ZM84.4084 23.0703C84.0764 23.7594 83.7403 24.4464 83.4059 25.1342C83.4618 25.195 83.5025 25.2536 83.5304 25.3101C83.6587 25.5709 83.5149 25.7907 83.3356 26.0054C83.3173 26.0273 83.2985 26.0491 83.2796 26.0711C83.2378 26.2738 83.1811 26.4449 83.4424 26.5789C84.1623 26.9478 84.8664 27.3521 85.5698 27.7558C85.6083 27.7778 85.6442 27.7947 85.6785 27.8056C85.774 27.8358 85.8566 27.8186 85.9445 27.7331C86.0069 27.5775 86.0642 27.4196 86.1326 27.2669C86.8133 25.746 86.3738 23.9561 85.0991 22.9302C84.7717 22.6667 84.5841 22.7056 84.4084 23.0703Z"
    fill="white"
  />
  <path
    d="M86.5433 0.39937C86.5513 2.55433 86.5503 4.70954 86.5441 6.86462C86.5433 7.14196 86.6446 7.24301 86.902 7.23729C87.4075 7.22598 87.9146 7.21199 88.4188 7.2421C88.8113 7.26537 88.8913 7.08389 88.8846 6.7139C88.8662 5.69015 88.8783 4.6657 88.8783 3.64137C88.8782 2.59595 88.8629 1.54995 88.886 0.505105C88.8947 0.107679 88.7706 -0.0198497 88.4011 0.00243976C87.9171 0.0319259 87.4302 0.0210673 86.945 0.00572791C86.6687 -0.00299046 86.5421 0.0834526 86.5433 0.39937ZM87.5669 0.895949C87.7384 0.896196 87.9488 0.737169 88.0498 1.02697C88.0582 2.69292 88.0606 4.35887 88.0799 6.02469C88.0838 6.35509 87.9407 6.4088 87.6733 6.40859C87.4063 6.40822 87.3232 6.29982 87.3244 6.02844C87.3319 4.42603 87.3275 2.82349 87.3288 1.22084C87.329 1.05251 87.3052 0.855277 87.5669 0.895949Z"
    fill="black"
  />
  <path
    fill-rule="evenodd"
    clip-rule="evenodd"
    d="M86.5433 0.39937C86.5513 2.55433 86.5503 4.70954 86.5441 6.86462C86.5433 7.14196 86.6446 7.24301 86.902 7.23729C87.4075 7.22598 87.9146 7.21199 88.4188 7.2421C88.8113 7.26537 88.8913 7.08389 88.8846 6.7139C88.8662 5.69015 88.8783 4.6657 88.8783 3.64137C88.8782 2.59595 88.8629 1.54995 88.886 0.505105C88.8947 0.107679 88.7706 -0.0198497 88.4011 0.00243976C87.9171 0.0319259 87.4302 0.0210673 86.945 0.00572791C86.6687 -0.00299046 86.5421 0.0834526 86.5433 0.39937ZM87.5669 0.895949C87.7384 0.896196 87.9488 0.737169 88.0498 1.02697C88.0582 2.69292 88.0606 4.35887 88.0799 6.02469C88.0838 6.35509 87.9407 6.4088 87.6733 6.40859C87.4063 6.40822 87.3232 6.29982 87.3244 6.02844C87.3319 4.42603 87.3275 2.82349 87.3288 1.22084C87.329 1.05251 87.3052 0.855277 87.5669 0.895949Z"
    fill="white"
  />
  <path
    d="M89.3688 1.9239C89.3871 2.52238 89.3952 3.12296 89.3661 3.72054C89.3469 4.11537 89.469 4.31725 89.8202 4.49631C91.739 5.47507 92.7979 7.7402 92.3774 9.88294C91.9228 12.1991 90.1301 13.8607 87.9701 13.9684C85.7997 14.0765 83.8404 12.6443 83.1816 10.468C82.5284 8.31014 83.291 5.92086 85.1696 4.78624C85.9486 4.31565 86.2408 3.81356 86.0932 2.9432C86.0932 2.64373 86.0713 2.34205 86.0981 2.04513C86.1412 1.56965 86.0109 1.46717 85.5576 1.60575C82.1519 2.64735 79.9661 6.35159 80.5057 10.2097C81.0103 13.8185 84.2156 16.7202 87.6462 16.6739C91.9525 16.6157 95.1984 12.9929 94.9906 8.47637C94.8457 5.32587 92.6399 2.41525 89.7934 1.59177C89.4604 1.4955 89.3577 1.56077 89.3688 1.9239ZM90.6082 2.83467C92.9805 4.1136 94.2156 6.19631 94.2087 8.96793C94.2017 11.8587 92.8654 13.9884 90.3697 15.212C87.2381 16.7476 83.4083 15.3036 81.9 12.0766C80.3249 8.70695 81.5076 4.71348 84.6117 2.96525C84.8054 2.85614 85.104 2.46994 85.2502 2.82851C85.3684 3.11831 85.4827 3.59511 84.9996 3.88421C83.5895 4.72747 82.6888 5.99591 82.3153 7.67119C81.6028 10.8687 83.6156 14.0764 86.7353 14.7093C89.6971 15.31 92.7124 13.0776 93.1576 9.90914C93.5074 7.42066 92.621 5.48079 90.6751 4.05788C90.5278 3.95018 90.3839 3.83745 90.2384 3.72695C90.0791 3.52293 90.1786 3.28338 90.1598 3.06094C90.119 2.58114 90.3323 2.63218 90.6082 2.83467Z"
    fill="black"
  />
  <path
    fill-rule="evenodd"
    clip-rule="evenodd"
    d="M89.3688 1.9239C89.3871 2.52238 89.3952 3.12296 89.3661 3.72054C89.3469 4.11537 89.469 4.31725 89.8202 4.49631C91.739 5.47507 92.7979 7.7402 92.3774 9.88294C91.9228 12.1991 90.1301 13.8607 87.9701 13.9684C85.7997 14.0765 83.8404 12.6443 83.1816 10.468C82.5284 8.31014 83.291 5.92086 85.1696 4.78624C85.9486 4.31565 86.2408 3.81356 86.0932 2.9432C86.0932 2.64373 86.0713 2.34205 86.0981 2.04513C86.1412 1.56965 86.0109 1.46717 85.5576 1.60575C82.1519 2.64735 79.9661 6.35159 80.5057 10.2097C81.0103 13.8185 84.2156 16.7202 87.6462 16.6739C91.9525 16.6157 95.1984 12.9929 94.9906 8.47637C94.8457 5.32587 92.6399 2.41525 89.7934 1.59177C89.4604 1.4955 89.3577 1.56077 89.3688 1.9239ZM90.6082 2.83467C92.9805 4.1136 94.2156 6.19631 94.2087 8.96793C94.2017 11.8587 92.8654 13.9884 90.3697 15.212C87.2381 16.7476 83.4083 15.3036 81.9 12.0766C80.3249 8.70695 81.5076 4.71348 84.6117 2.96525C84.8054 2.85614 85.104 2.46994 85.2502 2.82851C85.3684 3.11831 85.4827 3.59511 84.9996 3.88421C83.5895 4.72747 82.6888 5.99591 82.3153 7.67119C81.6028 10.8687 83.6156 14.0764 86.7353 14.7093C89.6971 15.31 92.7124 13.0776 93.1576 9.90914C93.5074 7.42066 92.621 5.48079 90.6751 4.05788C90.5278 3.95018 90.3839 3.83745 90.2384 3.72695C90.0791 3.52293 90.1786 3.28338 90.1598 3.06094C90.119 2.58114 90.3323 2.63218 90.6082 2.83467Z"
    fill="white"
  />
</svg>
